<mxfile host="app.diagrams.net" agent="Mozilla/5.0 (Macintosh; Intel Mac OS X 10_15_7) AppleWebKit/537.36 (KHTML, like Gecko) Chrome/140.0.0.0 Safari/537.36" version="28.1.2">
  <diagram name="PÃ¡gina-1" id="tLDWBXnI4YUi0A7ICsDH">
    <mxGraphModel dx="2354" dy="1676" grid="1" gridSize="10" guides="1" tooltips="1" connect="1" arrows="1" fold="1" page="1" pageScale="1" pageWidth="827" pageHeight="1169" math="0" shadow="0">
      <root>
        <mxCell id="0" />
        <mxCell id="1" parent="0" />
        <mxCell id="KHE4-WIelxEUgAE3A5Uk-1" value="&lt;font size=&quot;1&quot;&gt;html&lt;/font&gt;" style="ellipse;whiteSpace=wrap;html=1;aspect=fixed;fillColor=#60a917;fontColor=light-dark(#FFFFFF,#FFFFFF);strokeColor=#2D7600;" parent="1" vertex="1">
          <mxGeometry x="390" width="40" height="40" as="geometry" />
        </mxCell>
        <mxCell id="KHE4-WIelxEUgAE3A5Uk-3" value="&lt;font size=&quot;1&quot;&gt;head&lt;/font&gt;&lt;span style=&quot;color: rgba(0, 0, 0, 0); font-family: monospace; font-size: 0px; text-align: start; text-wrap-mode: nowrap;&quot;&gt;%3CmxGraphModel%3E%3Croot%3E%3CmxCell%20id%3D%220%22%2F%3E%3CmxCell%20id%3D%221%22%20parent%3D%220%22%2F%3E%3CmxCell%20id%3D%222%22%20value%3D%22%26lt%3Bfont%20size%3D%26quot%3B1%26quot%3B%26gt%3Bhtml%26lt%3B%2Ffont%26gt%3B%22%20style%3D%22ellipse%3BwhiteSpace%3Dwrap%3Bhtml%3D1%3Baspect%3Dfixed%3BfillColor%3D%2360a917%3BfontColor%3D%23ffffff%3BstrokeColor%3D%232D7600%3B%22%20vertex%3D%221%22%20parent%3D%221%22%3E%3CmxGeometry%20x%3D%22400%22%20width%3D%2240%22%20height%3D%2240%22%20as%3D%22geometry%22%2F%3E%3C%2FmxCell%3E%3C%2Froot%3E%3C%2FmxGraphModel%3E&lt;/span&gt;" style="ellipse;whiteSpace=wrap;html=1;aspect=fixed;fillColor=#60a917;fontColor=light-dark(#FFFFFF,#FFFFFF);strokeColor=#2D7600;" parent="1" vertex="1">
          <mxGeometry x="200" y="40" width="40" height="40" as="geometry" />
        </mxCell>
        <mxCell id="KHE4-WIelxEUgAE3A5Uk-7" value="" style="endArrow=classic;html=1;rounded=0;exitX=0;exitY=0.5;exitDx=0;exitDy=0;entryX=1;entryY=0;entryDx=0;entryDy=0;fillColor=#0050ef;strokeColor=#001DBC;" parent="1" source="KHE4-WIelxEUgAE3A5Uk-1" target="KHE4-WIelxEUgAE3A5Uk-3" edge="1">
          <mxGeometry width="50" height="50" relative="1" as="geometry">
            <mxPoint x="200" y="150" as="sourcePoint" />
            <mxPoint x="250" y="100" as="targetPoint" />
          </mxGeometry>
        </mxCell>
        <mxCell id="KHE4-WIelxEUgAE3A5Uk-8" value="&lt;font size=&quot;1&quot;&gt;meta&lt;/font&gt;&lt;div&gt;&lt;font size=&quot;1&quot;&gt;&lt;i&gt;UTF-8&lt;/i&gt;&lt;/font&gt;&lt;/div&gt;" style="ellipse;whiteSpace=wrap;html=1;aspect=fixed;fillColor=#60a917;fontColor=light-dark(#FFFFFF,#FFFFFF);strokeColor=#2D7600;" parent="1" vertex="1">
          <mxGeometry x="150" y="80" width="40" height="40" as="geometry" />
        </mxCell>
        <mxCell id="KHE4-WIelxEUgAE3A5Uk-9" value="&lt;font size=&quot;1&quot;&gt;meta&lt;/font&gt;&lt;div&gt;&lt;font size=&quot;1&quot;&gt;&lt;i&gt;description&lt;/i&gt;&lt;/font&gt;&lt;/div&gt;" style="ellipse;whiteSpace=wrap;html=1;aspect=fixed;fillColor=#60a917;fontColor=light-dark(#FFFFFF,#FFFFFF);strokeColor=#2D7600;" parent="1" vertex="1">
          <mxGeometry x="50" y="80" width="40" height="40" as="geometry" />
        </mxCell>
        <mxCell id="KHE4-WIelxEUgAE3A5Uk-10" value="&lt;font size=&quot;1&quot;&gt;meta&lt;/font&gt;&lt;div&gt;&lt;font size=&quot;1&quot;&gt;&lt;i&gt;viewport&lt;/i&gt;&lt;/font&gt;&lt;/div&gt;" style="ellipse;whiteSpace=wrap;html=1;aspect=fixed;fillColor=#60a917;fontColor=light-dark(#FFFFFF,#FFFFFF);strokeColor=#2D7600;" parent="1" vertex="1">
          <mxGeometry x="100" y="80" width="40" height="40" as="geometry" />
        </mxCell>
        <mxCell id="KHE4-WIelxEUgAE3A5Uk-11" value="&lt;font size=&quot;1&quot;&gt;title&lt;/font&gt;" style="ellipse;whiteSpace=wrap;html=1;aspect=fixed;fillColor=#60a917;fontColor=light-dark(#FFFFFF,#FFFFFF);strokeColor=#2D7600;" parent="1" vertex="1">
          <mxGeometry y="80" width="40" height="40" as="geometry" />
        </mxCell>
        <mxCell id="KHE4-WIelxEUgAE3A5Uk-12" value="&lt;font size=&quot;1&quot;&gt;style&lt;/font&gt;" style="ellipse;whiteSpace=wrap;html=1;aspect=fixed;fillColor=#60a917;fontColor=light-dark(#FFFFFF,#FFFFFF);strokeColor=#2D7600;" parent="1" vertex="1">
          <mxGeometry x="250" y="80" width="40" height="40" as="geometry" />
        </mxCell>
        <mxCell id="KHE4-WIelxEUgAE3A5Uk-13" value="" style="endArrow=classic;html=1;rounded=0;exitX=0;exitY=0.5;exitDx=0;exitDy=0;entryX=1;entryY=0;entryDx=0;entryDy=0;fillColor=#0050ef;strokeColor=#001DBC;" parent="1" edge="1">
          <mxGeometry width="50" height="50" relative="1" as="geometry">
            <mxPoint x="200" y="60" as="sourcePoint" />
            <mxPoint x="184" y="86" as="targetPoint" />
          </mxGeometry>
        </mxCell>
        <mxCell id="KHE4-WIelxEUgAE3A5Uk-14" value="" style="endArrow=classic;html=1;rounded=0;exitX=0;exitY=0.5;exitDx=0;exitDy=0;entryX=0.5;entryY=0;entryDx=0;entryDy=0;fillColor=#0050ef;strokeColor=#001DBC;" parent="1" source="KHE4-WIelxEUgAE3A5Uk-3" target="KHE4-WIelxEUgAE3A5Uk-10" edge="1">
          <mxGeometry width="50" height="50" relative="1" as="geometry">
            <mxPoint x="256" y="30" as="sourcePoint" />
            <mxPoint x="240" y="56" as="targetPoint" />
            <Array as="points" />
          </mxGeometry>
        </mxCell>
        <mxCell id="KHE4-WIelxEUgAE3A5Uk-15" value="" style="endArrow=classic;html=1;rounded=0;exitX=0;exitY=0.5;exitDx=0;exitDy=0;entryX=0.5;entryY=0;entryDx=0;entryDy=0;fillColor=#0050ef;strokeColor=#001DBC;" parent="1" target="KHE4-WIelxEUgAE3A5Uk-9" edge="1">
          <mxGeometry width="50" height="50" relative="1" as="geometry">
            <mxPoint x="200" y="60" as="sourcePoint" />
            <mxPoint x="120" y="80" as="targetPoint" />
            <Array as="points">
              <mxPoint x="100" y="80" />
            </Array>
          </mxGeometry>
        </mxCell>
        <mxCell id="KHE4-WIelxEUgAE3A5Uk-16" value="" style="endArrow=classic;html=1;rounded=0;exitX=0;exitY=0.5;exitDx=0;exitDy=0;entryX=0.5;entryY=0;entryDx=0;entryDy=0;fillColor=#0050ef;strokeColor=#001DBC;" parent="1" target="KHE4-WIelxEUgAE3A5Uk-11" edge="1">
          <mxGeometry width="50" height="50" relative="1" as="geometry">
            <mxPoint x="200" y="60" as="sourcePoint" />
            <mxPoint x="120" y="80" as="targetPoint" />
            <Array as="points" />
          </mxGeometry>
        </mxCell>
        <mxCell id="KHE4-WIelxEUgAE3A5Uk-17" value="" style="endArrow=classic;html=1;rounded=0;exitX=1;exitY=1;exitDx=0;exitDy=0;fillColor=#0050ef;strokeColor=#001DBC;" parent="1" source="KHE4-WIelxEUgAE3A5Uk-3" target="KHE4-WIelxEUgAE3A5Uk-12" edge="1">
          <mxGeometry width="50" height="50" relative="1" as="geometry">
            <mxPoint x="230" y="90" as="sourcePoint" />
            <mxPoint x="150" y="110" as="targetPoint" />
            <Array as="points" />
          </mxGeometry>
        </mxCell>
        <mxCell id="KHE4-WIelxEUgAE3A5Uk-18" value="&lt;font size=&quot;1&quot;&gt;body&lt;/font&gt;" style="ellipse;whiteSpace=wrap;html=1;aspect=fixed;fillColor=#60a917;fontColor=light-dark(#FFFFFF,#FFFFFF);strokeColor=#2D7600;" parent="1" vertex="1">
          <mxGeometry x="560" y="40" width="40" height="40" as="geometry" />
        </mxCell>
        <mxCell id="KHE4-WIelxEUgAE3A5Uk-19" value="&lt;font size=&quot;1&quot;&gt;footer&lt;/font&gt;" style="ellipse;whiteSpace=wrap;html=1;aspect=fixed;fillColor=#60a917;fontColor=light-dark(#FFFFFF,#FFFFFF);strokeColor=#2D7600;" parent="1" vertex="1">
          <mxGeometry x="1080" y="565" width="40" height="40" as="geometry" />
        </mxCell>
        <mxCell id="KHE4-WIelxEUgAE3A5Uk-20" value="&lt;font size=&quot;1&quot;&gt;main&lt;/font&gt;" style="ellipse;whiteSpace=wrap;html=1;aspect=fixed;fillColor=#60a917;fontColor=light-dark(#FFFFFF,#FFFFFF);strokeColor=#2D7600;" parent="1" vertex="1">
          <mxGeometry x="670" y="80" width="40" height="40" as="geometry" />
        </mxCell>
        <mxCell id="KHE4-WIelxEUgAE3A5Uk-21" value="&lt;font size=&quot;1&quot;&gt;section&lt;/font&gt;&lt;div&gt;&lt;font size=&quot;1&quot;&gt;&lt;i&gt;extra&lt;/i&gt;&lt;/font&gt;&lt;/div&gt;" style="ellipse;whiteSpace=wrap;html=1;aspect=fixed;fillColor=#60a917;fontColor=light-dark(#FFFFFF,#FFFFFF);strokeColor=#2D7600;" parent="1" vertex="1">
          <mxGeometry x="1280" y="565" width="40" height="40" as="geometry" />
        </mxCell>
        <mxCell id="KHE4-WIelxEUgAE3A5Uk-22" value="&lt;font size=&quot;1&quot;&gt;header&lt;/font&gt;" style="ellipse;whiteSpace=wrap;html=1;aspect=fixed;fillColor=#60a917;fontColor=light-dark(#FFFFFF,#FFFFFF);strokeColor=#2D7600;" parent="1" vertex="1">
          <mxGeometry x="320" y="80" width="40" height="40" as="geometry" />
        </mxCell>
        <mxCell id="KHE4-WIelxEUgAE3A5Uk-29" value="" style="endArrow=classic;html=1;rounded=0;exitX=0;exitY=0.5;exitDx=0;exitDy=0;entryX=0.5;entryY=0;entryDx=0;entryDy=0;fillColor=#0050ef;strokeColor=#001DBC;" parent="1" source="KHE4-WIelxEUgAE3A5Uk-18" edge="1">
          <mxGeometry width="50" height="50" relative="1" as="geometry">
            <mxPoint x="520" y="60" as="sourcePoint" />
            <mxPoint x="340" y="80" as="targetPoint" />
            <Array as="points" />
          </mxGeometry>
        </mxCell>
        <mxCell id="KHE4-WIelxEUgAE3A5Uk-30" value="" style="endArrow=classic;html=1;rounded=0;exitX=1;exitY=0.5;exitDx=0;exitDy=0;entryX=0;entryY=0;entryDx=0;entryDy=0;fillColor=#0050ef;strokeColor=#001DBC;" parent="1" source="KHE4-WIelxEUgAE3A5Uk-1" target="KHE4-WIelxEUgAE3A5Uk-18" edge="1">
          <mxGeometry width="50" height="50" relative="1" as="geometry">
            <mxPoint x="560" y="30" as="sourcePoint" />
            <mxPoint x="380" y="50" as="targetPoint" />
            <Array as="points" />
          </mxGeometry>
        </mxCell>
        <mxCell id="KHE4-WIelxEUgAE3A5Uk-31" value="&lt;font size=&quot;1&quot;&gt;div&lt;/font&gt;&lt;div&gt;&lt;font size=&quot;1&quot;&gt;&lt;i&gt;stack&lt;/i&gt;&lt;/font&gt;&lt;span style=&quot;color: rgba(0, 0, 0, 0); font-family: monospace; font-size: 0px; text-align: start; text-wrap-mode: nowrap; background-color: transparent;&quot;&gt;%3CmxGraphModel%3E%3Croot%3E%3CmxCell%20id%3D%220%22%2F%3E%3CmxCell%20id%3D%221%22%20parent%3D%220%22%2F%3E%3CmxCell%20id%3D%222%22%20value%3D%22%22%20style%3D%22endArrow%3Dclassic%3Bhtml%3D1%3Brounded%3D0%3BexitX%3D1%3BexitY%3D1%3BexitDx%3D0%3BexitDy%3D0%3BfillColor%3D%230050ef%3BstrokeColor%3D%23001DBC%3B%22%20edge%3D%221%22%20parent%3D%221%22%3E%3CmxGeometry%20width%3D%2250%22%20height%3D%2250%22%20relative%3D%221%22%20as%3D%22geometry%22%3E%3CmxPoint%20x%3D%22234%22%20y%3D%2274%22%20as%3D%22sourcePoint%22%2F%3E%3CmxPoint%20x%3D%22254%22%20y%3D%2288%22%20as%3D%22targetPoint%22%2F%3E%3CArray%20as%3D%22points%22%2F%3E%3C%2FmxGeometry%3E%3C%2FmxCell%3E%3C%2Froot%3E%3C%2FmxGraphModel%3E&lt;/span&gt;&lt;/div&gt;" style="ellipse;whiteSpace=wrap;html=1;aspect=fixed;fillColor=#60a917;fontColor=light-dark(#FFFFFF,#FFFFFF);strokeColor=#2D7600;" parent="1" vertex="1">
          <mxGeometry x="270" y="120" width="40" height="40" as="geometry" />
        </mxCell>
        <mxCell id="KHE4-WIelxEUgAE3A5Uk-33" value="" style="endArrow=classic;html=1;rounded=0;exitX=0;exitY=0.5;exitDx=0;exitDy=0;fillColor=#0050ef;strokeColor=#001DBC;entryX=0.75;entryY=0;entryDx=0;entryDy=0;entryPerimeter=0;" parent="1" source="KHE4-WIelxEUgAE3A5Uk-22" target="KHE4-WIelxEUgAE3A5Uk-31" edge="1">
          <mxGeometry width="50" height="50" relative="1" as="geometry">
            <mxPoint x="340" y="150" as="sourcePoint" />
            <mxPoint x="360" y="164" as="targetPoint" />
            <Array as="points" />
          </mxGeometry>
        </mxCell>
        <mxCell id="KHE4-WIelxEUgAE3A5Uk-34" value="&lt;div style=&quot;text-align: center;&quot;&gt;&lt;span style=&quot;background-color: transparent; text-align: start;&quot;&gt;&lt;font size=&quot;1&quot;&gt;h1&lt;/font&gt;&lt;/span&gt;&lt;span style=&quot;background-color: transparent; color: light-dark(rgba(0, 0, 0, 0), rgb(237, 237, 237)); font-family: monospace; font-size: 0px; text-align: start; text-wrap-mode: nowrap;&quot;&gt;%3CmxGraphModel%3E%3Croot%3E%3CmxCell%20id%3D%220%22%2F%3E%3CmxCell%20id%3D%221%22%20parent%3D%220%22%2F%3E%3CmxCell%20id%3D%222%22%20value%3D%22%22%20style%3D%22endArrow%3Dclassic%3Bhtml%3D1%3Brounded%3D0%3BexitX%3D1%3BexitY%3D1%3BexitDx%3D0%3BexitDy%3D0%3BfillColor%3D%230050ef%3BstrokeColor%3D%23001DBC%3B%22%20edge%3D%221%22%20parent%3D%221%22%3E%3CmxGeometry%20width%3D%2250%22%20height%3D%2250%22%20relative%3D%221%22%20as%3D%22geometry%22%3E%3CmxPoint%20x%3D%22234%22%20y%3D%2274%22%20as%3D%22sourcePoint%22%2F%3E%3CmxPoint%20x%3D%22254%22%20y%3D%2288%22%20as%3D%22targetPoint%22%2F%3E%3CArray%20as%3D%22points%22%2F%3E%3C%2FmxGeometry%3E%3C%2FmxCell%3E%3C%2Froot%3E%3C%2FmxGraphModel%3E&lt;/span&gt;&lt;/div&gt;" style="ellipse;whiteSpace=wrap;html=1;aspect=fixed;fillColor=#60a917;fontColor=light-dark(#FFFFFF,#FFFFFF);strokeColor=#2D7600;" parent="1" vertex="1">
          <mxGeometry x="120" y="160" width="40" height="40" as="geometry" />
        </mxCell>
        <mxCell id="KHE4-WIelxEUgAE3A5Uk-35" value="&lt;font size=&quot;1&quot;&gt;a&lt;/font&gt;&lt;div&gt;&lt;font size=&quot;1&quot;&gt;&lt;i&gt;sr-only&lt;/i&gt;&lt;/font&gt;&lt;/div&gt;" style="ellipse;whiteSpace=wrap;html=1;aspect=fixed;fillColor=#60a917;fontColor=light-dark(#FFFFFF,#FFFFFF);strokeColor=#2D7600;" parent="1" vertex="1">
          <mxGeometry x="220" y="160" width="40" height="40" as="geometry" />
        </mxCell>
        <mxCell id="KHE4-WIelxEUgAE3A5Uk-36" value="&lt;span style=&quot;font-size: x-small; background-color: transparent;&quot;&gt;nav&lt;/span&gt;&lt;div&gt;&lt;i style=&quot;font-size: x-small; background-color: transparent;&quot;&gt;migas&lt;/i&gt;&lt;/div&gt;" style="ellipse;whiteSpace=wrap;html=1;aspect=fixed;fillColor=#60a917;fontColor=light-dark(#FFFFFF,#FFFFFF);strokeColor=#2D7600;" parent="1" vertex="1">
          <mxGeometry x="310" y="160" width="40" height="40" as="geometry" />
        </mxCell>
        <mxCell id="KHE4-WIelxEUgAE3A5Uk-37" value="&lt;font size=&quot;1&quot;&gt;nav&lt;/font&gt;&lt;div&gt;&lt;font size=&quot;1&quot;&gt;&lt;i&gt;nav-principal&lt;/i&gt;&lt;/font&gt;&lt;/div&gt;" style="ellipse;whiteSpace=wrap;html=1;aspect=fixed;fillColor=#60a917;fontColor=light-dark(#FFFFFF,#FFFFFF);strokeColor=#2D7600;" parent="1" vertex="1">
          <mxGeometry x="70" y="160" width="40" height="40" as="geometry" />
        </mxCell>
        <mxCell id="KHE4-WIelxEUgAE3A5Uk-38" value="&lt;font size=&quot;1&quot;&gt;p&lt;/font&gt;&lt;div&gt;&lt;font size=&quot;1&quot;&gt;&lt;i&gt;deep&lt;/i&gt;&lt;br&gt;&lt;/font&gt;&lt;div&gt;&lt;font size=&quot;1&quot;&gt;&lt;br&gt;&lt;/font&gt;&lt;/div&gt;&lt;/div&gt;" style="ellipse;whiteSpace=wrap;html=1;aspect=fixed;fillColor=#60a917;fontColor=light-dark(#FFFFFF,#FFFFFF);strokeColor=#2D7600;" parent="1" vertex="1">
          <mxGeometry x="170" y="160" width="40" height="40" as="geometry" />
        </mxCell>
        <mxCell id="KHE4-WIelxEUgAE3A5Uk-39" value="" style="endArrow=classic;html=1;rounded=0;fillColor=#0050ef;strokeColor=#001DBC;entryX=0.79;entryY=-0.005;entryDx=0;entryDy=0;entryPerimeter=0;exitX=0;exitY=0.5;exitDx=0;exitDy=0;" parent="1" source="KHE4-WIelxEUgAE3A5Uk-31" target="KHE4-WIelxEUgAE3A5Uk-37" edge="1">
          <mxGeometry width="50" height="50" relative="1" as="geometry">
            <mxPoint x="290" y="210" as="sourcePoint" />
            <mxPoint x="270" y="230" as="targetPoint" />
            <Array as="points" />
          </mxGeometry>
        </mxCell>
        <mxCell id="KHE4-WIelxEUgAE3A5Uk-40" value="" style="endArrow=classic;html=1;rounded=0;fillColor=#0050ef;strokeColor=#001DBC;entryX=0.79;entryY=-0.005;entryDx=0;entryDy=0;entryPerimeter=0;exitX=0;exitY=0.5;exitDx=0;exitDy=0;" parent="1" source="KHE4-WIelxEUgAE3A5Uk-31" edge="1">
          <mxGeometry width="50" height="50" relative="1" as="geometry">
            <mxPoint x="318" y="140" as="sourcePoint" />
            <mxPoint x="150" y="160" as="targetPoint" />
            <Array as="points" />
          </mxGeometry>
        </mxCell>
        <mxCell id="KHE4-WIelxEUgAE3A5Uk-41" value="" style="endArrow=classic;html=1;rounded=0;fillColor=#0050ef;strokeColor=#001DBC;entryX=0.79;entryY=-0.005;entryDx=0;entryDy=0;entryPerimeter=0;exitX=-0.033;exitY=0.608;exitDx=0;exitDy=0;exitPerimeter=0;" parent="1" source="KHE4-WIelxEUgAE3A5Uk-31" edge="1">
          <mxGeometry width="50" height="50" relative="1" as="geometry">
            <mxPoint x="320" y="140" as="sourcePoint" />
            <mxPoint x="200" y="160" as="targetPoint" />
            <Array as="points" />
          </mxGeometry>
        </mxCell>
        <mxCell id="KHE4-WIelxEUgAE3A5Uk-42" value="" style="endArrow=classic;html=1;rounded=0;fillColor=#0050ef;strokeColor=#001DBC;entryX=0.79;entryY=-0.005;entryDx=0;entryDy=0;entryPerimeter=0;exitX=0.015;exitY=0.624;exitDx=0;exitDy=0;exitPerimeter=0;" parent="1" source="KHE4-WIelxEUgAE3A5Uk-31" edge="1">
          <mxGeometry width="50" height="50" relative="1" as="geometry">
            <mxPoint x="324.5" y="144" as="sourcePoint" />
            <mxPoint x="255.5" y="160" as="targetPoint" />
            <Array as="points" />
          </mxGeometry>
        </mxCell>
        <mxCell id="KHE4-WIelxEUgAE3A5Uk-45" value="&lt;font size=&quot;1&quot;&gt;ul&lt;/font&gt;&lt;div&gt;&lt;font size=&quot;1&quot;&gt;&lt;i&gt;deep&lt;/i&gt;&lt;/font&gt;&lt;/div&gt;" style="ellipse;whiteSpace=wrap;html=1;aspect=fixed;fillColor=#60a917;fontColor=light-dark(#FFFFFF,#FFFFFF);strokeColor=#2D7600;" parent="1" vertex="1">
          <mxGeometry x="20" y="200" width="40" height="40" as="geometry" />
        </mxCell>
        <mxCell id="KHE4-WIelxEUgAE3A5Uk-47" value="" style="endArrow=classic;html=1;rounded=0;exitX=1;exitY=0.5;exitDx=0;exitDy=0;fillColor=#0050ef;strokeColor=#001DBC;entryX=0.5;entryY=0;entryDx=0;entryDy=0;" parent="1" source="KHE4-WIelxEUgAE3A5Uk-31" target="KHE4-WIelxEUgAE3A5Uk-36" edge="1">
          <mxGeometry width="50" height="50" relative="1" as="geometry">
            <mxPoint x="320" y="110" as="sourcePoint" />
            <mxPoint x="300" y="130" as="targetPoint" />
            <Array as="points" />
          </mxGeometry>
        </mxCell>
        <mxCell id="KHE4-WIelxEUgAE3A5Uk-48" value="" style="endArrow=classic;html=1;rounded=0;exitX=0;exitY=0.5;exitDx=0;exitDy=0;fillColor=#0050ef;strokeColor=#001DBC;entryX=0.652;entryY=0.076;entryDx=0;entryDy=0;entryPerimeter=0;" parent="1" source="KHE4-WIelxEUgAE3A5Uk-37" target="KHE4-WIelxEUgAE3A5Uk-45" edge="1">
          <mxGeometry width="50" height="50" relative="1" as="geometry">
            <mxPoint x="40" y="190" as="sourcePoint" />
            <mxPoint x="60" y="210" as="targetPoint" />
            <Array as="points" />
          </mxGeometry>
        </mxCell>
        <mxCell id="KHE4-WIelxEUgAE3A5Uk-49" value="&lt;font size=&quot;1&quot;&gt;li&lt;/font&gt;&lt;div&gt;&lt;font size=&quot;1&quot;&gt;&lt;i&gt;reportes&lt;/i&gt;&lt;/font&gt;&lt;/div&gt;" style="ellipse;whiteSpace=wrap;html=1;aspect=fixed;fillColor=#60a917;fontColor=light-dark(#FFFFFF,#FFFFFF);strokeColor=#2D7600;" parent="1" vertex="1">
          <mxGeometry x="-70" y="240" width="40" height="40" as="geometry" />
        </mxCell>
        <mxCell id="KHE4-WIelxEUgAE3A5Uk-50" value="&lt;font size=&quot;1&quot;&gt;li&lt;/font&gt;&lt;div&gt;&lt;font size=&quot;1&quot;&gt;&lt;i&gt;equipo&lt;/i&gt;&lt;/font&gt;&lt;/div&gt;" style="ellipse;whiteSpace=wrap;html=1;aspect=fixed;fillColor=#60a917;fontColor=light-dark(#FFFFFF,#FFFFFF);strokeColor=#2D7600;" parent="1" vertex="1">
          <mxGeometry x="-20" y="240" width="40" height="40" as="geometry" />
        </mxCell>
        <mxCell id="KHE4-WIelxEUgAE3A5Uk-51" value="&lt;font size=&quot;1&quot;&gt;li&lt;/font&gt;&lt;div&gt;&lt;font size=&quot;1&quot;&gt;&lt;i&gt;ayuda&lt;/i&gt;&lt;/font&gt;&lt;/div&gt;" style="ellipse;whiteSpace=wrap;html=1;aspect=fixed;fillColor=#60a917;fontColor=light-dark(#FFFFFF,#FFFFFF);strokeColor=#2D7600;" parent="1" vertex="1">
          <mxGeometry x="50" y="240" width="40" height="40" as="geometry" />
        </mxCell>
        <mxCell id="KHE4-WIelxEUgAE3A5Uk-52" value="" style="endArrow=classic;html=1;rounded=0;exitX=0;exitY=0.5;exitDx=0;exitDy=0;fillColor=#0050ef;strokeColor=#001DBC;entryX=0.5;entryY=0;entryDx=0;entryDy=0;" parent="1" source="KHE4-WIelxEUgAE3A5Uk-45" target="KHE4-WIelxEUgAE3A5Uk-50" edge="1">
          <mxGeometry width="50" height="50" relative="1" as="geometry">
            <mxPoint x="84" y="190" as="sourcePoint" />
            <mxPoint x="60" y="213" as="targetPoint" />
            <Array as="points" />
          </mxGeometry>
        </mxCell>
        <mxCell id="KHE4-WIelxEUgAE3A5Uk-53" value="" style="endArrow=classic;html=1;rounded=0;exitX=0;exitY=0.5;exitDx=0;exitDy=0;fillColor=#0050ef;strokeColor=#001DBC;entryX=0.5;entryY=0;entryDx=0;entryDy=0;" parent="1" source="KHE4-WIelxEUgAE3A5Uk-45" edge="1">
          <mxGeometry width="50" height="50" relative="1" as="geometry">
            <mxPoint x="-20" y="220" as="sourcePoint" />
            <mxPoint x="-40" y="240" as="targetPoint" />
            <Array as="points" />
          </mxGeometry>
        </mxCell>
        <mxCell id="KHE4-WIelxEUgAE3A5Uk-54" value="" style="endArrow=classic;html=1;rounded=0;exitX=1;exitY=0.5;exitDx=0;exitDy=0;fillColor=#0050ef;strokeColor=#001DBC;entryX=0.5;entryY=0;entryDx=0;entryDy=0;" parent="1" source="KHE4-WIelxEUgAE3A5Uk-45" target="KHE4-WIelxEUgAE3A5Uk-51" edge="1">
          <mxGeometry width="50" height="50" relative="1" as="geometry">
            <mxPoint x="20" y="230" as="sourcePoint" />
            <mxPoint y="250" as="targetPoint" />
            <Array as="points" />
          </mxGeometry>
        </mxCell>
        <mxCell id="KHE4-WIelxEUgAE3A5Uk-55" value="&lt;font size=&quot;1&quot;&gt;ol&lt;/font&gt;&lt;div&gt;&lt;font size=&quot;1&quot;&gt;&lt;i&gt;deep&lt;/i&gt;&lt;/font&gt;&lt;/div&gt;" style="ellipse;whiteSpace=wrap;html=1;aspect=fixed;fillColor=#60a917;fontColor=light-dark(#FFFFFF,#FFFFFF);strokeColor=#2D7600;" parent="1" vertex="1">
          <mxGeometry x="280" y="200" width="40" height="40" as="geometry" />
        </mxCell>
        <mxCell id="KHE4-WIelxEUgAE3A5Uk-56" value="&lt;font size=&quot;1&quot;&gt;li&lt;/font&gt;&lt;div&gt;&lt;font size=&quot;1&quot;&gt;&lt;i&gt;itemListElement&lt;/i&gt;&lt;/font&gt;&lt;/div&gt;" style="ellipse;whiteSpace=wrap;html=1;aspect=fixed;fillColor=#60a917;fontColor=light-dark(#FFFFFF,#FFFFFF);strokeColor=#2D7600;" parent="1" vertex="1">
          <mxGeometry x="190" y="240" width="40" height="40" as="geometry" />
        </mxCell>
        <mxCell id="KHE4-WIelxEUgAE3A5Uk-57" value="&lt;font size=&quot;1&quot;&gt;li&lt;/font&gt;&lt;div&gt;&lt;font size=&quot;1&quot;&gt;&lt;i&gt;equipo&lt;/i&gt;&lt;/font&gt;&lt;/div&gt;" style="ellipse;whiteSpace=wrap;html=1;aspect=fixed;fillColor=#60a917;fontColor=light-dark(#FFFFFF,#FFFFFF);strokeColor=#2D7600;" parent="1" vertex="1">
          <mxGeometry x="240" y="240" width="40" height="40" as="geometry" />
        </mxCell>
        <mxCell id="KHE4-WIelxEUgAE3A5Uk-58" value="&lt;font size=&quot;1&quot;&gt;li&lt;/font&gt;&lt;div&gt;&lt;font size=&quot;1&quot;&gt;&lt;i&gt;ayuda&lt;/i&gt;&lt;/font&gt;&lt;/div&gt;" style="ellipse;whiteSpace=wrap;html=1;aspect=fixed;fillColor=#60a917;fontColor=light-dark(#FFFFFF,#FFFFFF);strokeColor=#2D7600;" parent="1" vertex="1">
          <mxGeometry x="310" y="240" width="40" height="40" as="geometry" />
        </mxCell>
        <mxCell id="KHE4-WIelxEUgAE3A5Uk-59" value="" style="endArrow=classic;html=1;rounded=0;exitX=0;exitY=0.5;exitDx=0;exitDy=0;fillColor=#0050ef;strokeColor=#001DBC;entryX=0.5;entryY=0;entryDx=0;entryDy=0;" parent="1" source="KHE4-WIelxEUgAE3A5Uk-55" target="KHE4-WIelxEUgAE3A5Uk-57" edge="1">
          <mxGeometry width="50" height="50" relative="1" as="geometry">
            <mxPoint x="344" y="190" as="sourcePoint" />
            <mxPoint x="320" y="213" as="targetPoint" />
            <Array as="points" />
          </mxGeometry>
        </mxCell>
        <mxCell id="KHE4-WIelxEUgAE3A5Uk-60" value="" style="endArrow=classic;html=1;rounded=0;exitX=0;exitY=0.5;exitDx=0;exitDy=0;fillColor=#0050ef;strokeColor=#001DBC;entryX=0.5;entryY=0;entryDx=0;entryDy=0;" parent="1" source="KHE4-WIelxEUgAE3A5Uk-55" edge="1">
          <mxGeometry width="50" height="50" relative="1" as="geometry">
            <mxPoint x="240" y="220" as="sourcePoint" />
            <mxPoint x="220" y="240" as="targetPoint" />
            <Array as="points" />
          </mxGeometry>
        </mxCell>
        <mxCell id="KHE4-WIelxEUgAE3A5Uk-61" value="" style="endArrow=classic;html=1;rounded=0;exitX=1;exitY=0.5;exitDx=0;exitDy=0;fillColor=#0050ef;strokeColor=#001DBC;entryX=0.5;entryY=0;entryDx=0;entryDy=0;" parent="1" source="KHE4-WIelxEUgAE3A5Uk-55" target="KHE4-WIelxEUgAE3A5Uk-58" edge="1">
          <mxGeometry width="50" height="50" relative="1" as="geometry">
            <mxPoint x="280" y="230" as="sourcePoint" />
            <mxPoint x="260" y="250" as="targetPoint" />
            <Array as="points" />
          </mxGeometry>
        </mxCell>
        <mxCell id="KHE4-WIelxEUgAE3A5Uk-62" value="&lt;font size=&quot;1&quot;&gt;li&lt;/font&gt;&lt;div&gt;&lt;font size=&quot;1&quot;&gt;&lt;i&gt;itemListElement&lt;/i&gt;&lt;/font&gt;&lt;/div&gt;" style="ellipse;whiteSpace=wrap;html=1;aspect=fixed;fillColor=#60a917;fontColor=light-dark(#FFFFFF,#FFFFFF);strokeColor=#2D7600;" parent="1" vertex="1">
          <mxGeometry x="240" y="240" width="40" height="40" as="geometry" />
        </mxCell>
        <mxCell id="KHE4-WIelxEUgAE3A5Uk-63" value="&lt;font size=&quot;1&quot;&gt;li&lt;/font&gt;&lt;div&gt;&lt;font size=&quot;1&quot;&gt;&lt;i&gt;itemListElement&lt;/i&gt;&lt;/font&gt;&lt;/div&gt;" style="ellipse;whiteSpace=wrap;html=1;aspect=fixed;fillColor=#60a917;fontColor=light-dark(#FFFFFF,#FFFFFF);strokeColor=#2D7600;" parent="1" vertex="1">
          <mxGeometry x="310" y="240" width="40" height="40" as="geometry" />
        </mxCell>
        <mxCell id="KHE4-WIelxEUgAE3A5Uk-64" value="" style="endArrow=classic;html=1;rounded=0;exitX=0;exitY=0.5;exitDx=0;exitDy=0;fillColor=#0050ef;strokeColor=#001DBC;entryX=0.5;entryY=0;entryDx=0;entryDy=0;" parent="1" source="KHE4-WIelxEUgAE3A5Uk-36" target="KHE4-WIelxEUgAE3A5Uk-55" edge="1">
          <mxGeometry width="50" height="50" relative="1" as="geometry">
            <mxPoint x="320" y="220" as="sourcePoint" />
            <mxPoint x="330" y="240" as="targetPoint" />
            <Array as="points" />
          </mxGeometry>
        </mxCell>
        <mxCell id="KHE4-WIelxEUgAE3A5Uk-65" value="" style="endArrow=classic;html=1;rounded=0;entryX=0.5;entryY=0;entryDx=0;entryDy=0;fillColor=#0050ef;strokeColor=#001DBC;exitX=1;exitY=0.5;exitDx=0;exitDy=0;" parent="1" source="KHE4-WIelxEUgAE3A5Uk-18" target="KHE4-WIelxEUgAE3A5Uk-20" edge="1">
          <mxGeometry width="50" height="50" relative="1" as="geometry">
            <mxPoint x="560" y="60" as="sourcePoint" />
            <mxPoint x="460" y="80" as="targetPoint" />
            <Array as="points" />
          </mxGeometry>
        </mxCell>
        <mxCell id="KHE4-WIelxEUgAE3A5Uk-66" value="&lt;font size=&quot;1&quot;&gt;section&lt;/font&gt;&lt;div&gt;&lt;font size=&quot;1&quot;&gt;&lt;i&gt;reportes&lt;/i&gt;&lt;/font&gt;&lt;/div&gt;" style="ellipse;whiteSpace=wrap;html=1;aspect=fixed;fillColor=#60a917;fontColor=light-dark(#FFFFFF,#FFFFFF);strokeColor=#2D7600;" parent="1" vertex="1">
          <mxGeometry x="480" y="120" width="40" height="40" as="geometry" />
        </mxCell>
        <mxCell id="KHE4-WIelxEUgAE3A5Uk-70" value="&lt;font size=&quot;1&quot;&gt;h2&lt;/font&gt;&lt;div&gt;&lt;font size=&quot;1&quot;&gt;&lt;i&gt;titulo-reportes&lt;/i&gt;&lt;/font&gt;&lt;/div&gt;" style="ellipse;whiteSpace=wrap;html=1;aspect=fixed;fillColor=#60a917;fontColor=light-dark(#FFFFFF,#FFFFFF);strokeColor=#2D7600;" parent="1" vertex="1">
          <mxGeometry x="360" y="160" width="40" height="40" as="geometry" />
        </mxCell>
        <mxCell id="KHE4-WIelxEUgAE3A5Uk-71" value="&lt;font size=&quot;1&quot;&gt;article&lt;/font&gt;&lt;div&gt;&lt;font size=&quot;1&quot;&gt;&lt;i&gt;reportes-ventas&lt;/i&gt;&lt;/font&gt;&lt;/div&gt;" style="ellipse;whiteSpace=wrap;html=1;aspect=fixed;fillColor=#60a917;fontColor=light-dark(#FFFFFF,#FFFFFF);strokeColor=#2D7600;" parent="1" vertex="1">
          <mxGeometry x="440" y="160" width="40" height="40" as="geometry" />
        </mxCell>
        <mxCell id="KHE4-WIelxEUgAE3A5Uk-72" value="&lt;font size=&quot;1&quot;&gt;article&lt;/font&gt;&lt;div&gt;&lt;font size=&quot;1&quot;&gt;&lt;i&gt;reportes-marketing&lt;/i&gt;&lt;/font&gt;&lt;/div&gt;" style="ellipse;whiteSpace=wrap;html=1;aspect=fixed;fillColor=#60a917;fontColor=light-dark(#FFFFFF,#FFFFFF);strokeColor=#2D7600;" parent="1" vertex="1">
          <mxGeometry x="6" y="320" width="40" height="40" as="geometry" />
        </mxCell>
        <mxCell id="KHE4-WIelxEUgAE3A5Uk-74" value="" style="endArrow=classic;html=1;rounded=0;entryX=0.5;entryY=0;entryDx=0;entryDy=0;fillColor=#0050ef;strokeColor=#001DBC;" parent="1" source="KHE4-WIelxEUgAE3A5Uk-20" target="KHE4-WIelxEUgAE3A5Uk-66" edge="1">
          <mxGeometry width="50" height="50" relative="1" as="geometry">
            <mxPoint x="440" y="100" as="sourcePoint" />
            <mxPoint x="340" y="120" as="targetPoint" />
            <Array as="points" />
          </mxGeometry>
        </mxCell>
        <mxCell id="KHE4-WIelxEUgAE3A5Uk-75" value="" style="endArrow=classic;html=1;rounded=0;entryX=0.5;entryY=0;entryDx=0;entryDy=0;fillColor=#0050ef;strokeColor=#001DBC;exitX=0;exitY=0.5;exitDx=0;exitDy=0;" parent="1" source="KHE4-WIelxEUgAE3A5Uk-66" target="KHE4-WIelxEUgAE3A5Uk-70" edge="1">
          <mxGeometry width="50" height="50" relative="1" as="geometry">
            <mxPoint x="450" y="100" as="sourcePoint" />
            <mxPoint x="430" y="120" as="targetPoint" />
            <Array as="points" />
          </mxGeometry>
        </mxCell>
        <mxCell id="KHE4-WIelxEUgAE3A5Uk-76" value="" style="endArrow=classic;html=1;rounded=0;entryX=1;entryY=0;entryDx=0;entryDy=0;fillColor=#0050ef;strokeColor=#001DBC;exitX=-0.023;exitY=0.624;exitDx=0;exitDy=0;align=center;verticalAlign=middle;fontFamily=Helvetica;fontSize=11;fontColor=default;labelBackgroundColor=default;exitPerimeter=0;" parent="1" source="KHE4-WIelxEUgAE3A5Uk-66" target="KHE4-WIelxEUgAE3A5Uk-71" edge="1">
          <mxGeometry width="50" height="50" relative="1" as="geometry">
            <mxPoint x="410" y="140" as="sourcePoint" />
            <mxPoint x="390" y="160" as="targetPoint" />
            <Array as="points" />
          </mxGeometry>
        </mxCell>
        <mxCell id="KHE4-WIelxEUgAE3A5Uk-78" value="" style="endArrow=classic;html=1;rounded=0;entryX=0.5;entryY=0;entryDx=0;entryDy=0;fillColor=#0050ef;strokeColor=#001DBC;exitX=1;exitY=0.5;exitDx=0;exitDy=0;" parent="1" source="KHE4-WIelxEUgAE3A5Uk-66" target="KHE4-WIelxEUgAE3A5Uk-72" edge="1">
          <mxGeometry width="50" height="50" relative="1" as="geometry">
            <mxPoint x="460" y="250" as="sourcePoint" />
            <mxPoint x="468" y="276" as="targetPoint" />
            <Array as="points">
              <mxPoint x="910" y="170" />
              <mxPoint x="970" y="290" />
            </Array>
          </mxGeometry>
        </mxCell>
        <mxCell id="KHE4-WIelxEUgAE3A5Uk-79" value="&lt;font size=&quot;1&quot;&gt;header&lt;/font&gt;" style="ellipse;whiteSpace=wrap;html=1;aspect=fixed;fillColor=#60a917;fontColor=light-dark(#FFFFFF,#FFFFFF);strokeColor=#2D7600;" parent="1" vertex="1">
          <mxGeometry x="414" y="200" width="40" height="40" as="geometry" />
        </mxCell>
        <mxCell id="KHE4-WIelxEUgAE3A5Uk-80" value="&lt;font size=&quot;1&quot;&gt;div&lt;/font&gt;&lt;div&gt;&lt;font size=&quot;1&quot;&gt;&lt;i&gt;grid&lt;/i&gt;&lt;/font&gt;&lt;/div&gt;" style="ellipse;whiteSpace=wrap;html=1;aspect=fixed;fillColor=#60a917;fontColor=light-dark(#FFFFFF,#FFFFFF);strokeColor=#2D7600;" parent="1" vertex="1">
          <mxGeometry x="540" y="200" width="40" height="40" as="geometry" />
        </mxCell>
        <mxCell id="KHE4-WIelxEUgAE3A5Uk-81" value="&lt;font size=&quot;1&quot;&gt;section&lt;/font&gt;&lt;div&gt;&lt;font size=&quot;1&quot;&gt;&lt;i&gt;deep&lt;/i&gt;&lt;/font&gt;&lt;/div&gt;" style="ellipse;whiteSpace=wrap;html=1;aspect=fixed;fillColor=#60a917;fontColor=light-dark(#FFFFFF,#FFFFFF);strokeColor=#2D7600;" parent="1" vertex="1">
          <mxGeometry x="660" y="200" width="40" height="40" as="geometry" />
        </mxCell>
        <mxCell id="KHE4-WIelxEUgAE3A5Uk-82" value="&lt;font size=&quot;1&quot;&gt;aside&lt;/font&gt;&lt;div&gt;&lt;font size=&quot;1&quot;&gt;&lt;i&gt;deep&lt;/i&gt;&lt;/font&gt;&lt;/div&gt;" style="ellipse;whiteSpace=wrap;html=1;aspect=fixed;fillColor=#60a917;fontColor=light-dark(#FFFFFF,#FFFFFF);strokeColor=#2D7600;" parent="1" vertex="1">
          <mxGeometry x="780" y="200" width="40" height="40" as="geometry" />
        </mxCell>
        <mxCell id="KHE4-WIelxEUgAE3A5Uk-83" value="&lt;font size=&quot;1&quot;&gt;footer&lt;/font&gt;" style="ellipse;whiteSpace=wrap;html=1;aspect=fixed;fillColor=#60a917;fontColor=light-dark(#FFFFFF,#FFFFFF);strokeColor=#2D7600;" parent="1" vertex="1">
          <mxGeometry x="870" y="200" width="40" height="40" as="geometry" />
        </mxCell>
        <mxCell id="KHE4-WIelxEUgAE3A5Uk-84" value="" style="endArrow=classic;html=1;rounded=0;entryX=0.4;entryY=0;entryDx=0;entryDy=0;fillColor=#0050ef;strokeColor=#001DBC;exitX=0;exitY=0.5;exitDx=0;exitDy=0;entryPerimeter=0;" parent="1" source="KHE4-WIelxEUgAE3A5Uk-71" target="KHE4-WIelxEUgAE3A5Uk-79" edge="1">
          <mxGeometry width="50" height="50" relative="1" as="geometry">
            <mxPoint x="410" y="150" as="sourcePoint" />
            <mxPoint x="390" y="170" as="targetPoint" />
            <Array as="points" />
          </mxGeometry>
        </mxCell>
        <mxCell id="KHE4-WIelxEUgAE3A5Uk-85" value="" style="endArrow=classic;html=1;rounded=0;entryX=0.5;entryY=0;entryDx=0;entryDy=0;fillColor=#0050ef;strokeColor=#001DBC;exitX=1;exitY=0.5;exitDx=0;exitDy=0;" parent="1" source="KHE4-WIelxEUgAE3A5Uk-71" target="KHE4-WIelxEUgAE3A5Uk-80" edge="1">
          <mxGeometry width="50" height="50" relative="1" as="geometry">
            <mxPoint x="540" y="280" as="sourcePoint" />
            <mxPoint x="520" y="300" as="targetPoint" />
            <Array as="points" />
          </mxGeometry>
        </mxCell>
        <mxCell id="KHE4-WIelxEUgAE3A5Uk-86" value="" style="endArrow=classic;html=1;rounded=0;entryX=0;entryY=0;entryDx=0;entryDy=0;fillColor=#0050ef;strokeColor=#001DBC;" parent="1" target="KHE4-WIelxEUgAE3A5Uk-81" edge="1">
          <mxGeometry width="50" height="50" relative="1" as="geometry">
            <mxPoint x="480" y="180" as="sourcePoint" />
            <mxPoint x="480" y="310" as="targetPoint" />
            <Array as="points" />
          </mxGeometry>
        </mxCell>
        <mxCell id="KHE4-WIelxEUgAE3A5Uk-87" value="" style="endArrow=classic;html=1;rounded=0;entryX=0.187;entryY=0.011;entryDx=0;entryDy=0;fillColor=#0050ef;strokeColor=#001DBC;entryPerimeter=0;" parent="1" target="KHE4-WIelxEUgAE3A5Uk-82" edge="1">
          <mxGeometry width="50" height="50" relative="1" as="geometry">
            <mxPoint x="480" y="180" as="sourcePoint" />
            <mxPoint x="520" y="330" as="targetPoint" />
            <Array as="points">
              <mxPoint x="570" y="190" />
            </Array>
          </mxGeometry>
        </mxCell>
        <mxCell id="KHE4-WIelxEUgAE3A5Uk-88" value="" style="endArrow=classic;html=1;rounded=0;entryX=0.389;entryY=-0.069;entryDx=0;entryDy=0;fillColor=#0050ef;strokeColor=#001DBC;exitX=1;exitY=0.5;exitDx=0;exitDy=0;entryPerimeter=0;" parent="1" source="KHE4-WIelxEUgAE3A5Uk-71" target="KHE4-WIelxEUgAE3A5Uk-83" edge="1">
          <mxGeometry width="50" height="50" relative="1" as="geometry">
            <mxPoint x="590" y="250" as="sourcePoint" />
            <mxPoint x="570" y="270" as="targetPoint" />
            <Array as="points" />
          </mxGeometry>
        </mxCell>
        <mxCell id="KHE4-WIelxEUgAE3A5Uk-89" value="&lt;font size=&quot;1&quot;&gt;h3&lt;/font&gt;" style="ellipse;whiteSpace=wrap;html=1;aspect=fixed;fillColor=#60a917;fontColor=light-dark(#FFFFFF,#FFFFFF);strokeColor=#2D7600;" parent="1" vertex="1">
          <mxGeometry x="374" y="240" width="40" height="40" as="geometry" />
        </mxCell>
        <mxCell id="KHE4-WIelxEUgAE3A5Uk-90" value="&lt;font size=&quot;1&quot;&gt;p&lt;/font&gt;" style="ellipse;whiteSpace=wrap;html=1;aspect=fixed;fillColor=#60a917;fontColor=light-dark(#FFFFFF,#FFFFFF);strokeColor=#2D7600;" parent="1" vertex="1">
          <mxGeometry x="440" y="240" width="40" height="40" as="geometry" />
        </mxCell>
        <mxCell id="KHE4-WIelxEUgAE3A5Uk-91" value="" style="endArrow=classic;html=1;rounded=0;entryX=0.5;entryY=0;entryDx=0;entryDy=0;fillColor=#0050ef;strokeColor=#001DBC;exitX=0;exitY=0.5;exitDx=0;exitDy=0;" parent="1" source="KHE4-WIelxEUgAE3A5Uk-79" target="KHE4-WIelxEUgAE3A5Uk-89" edge="1">
          <mxGeometry width="50" height="50" relative="1" as="geometry">
            <mxPoint x="440" y="180" as="sourcePoint" />
            <mxPoint x="430" y="200" as="targetPoint" />
            <Array as="points" />
          </mxGeometry>
        </mxCell>
        <mxCell id="KHE4-WIelxEUgAE3A5Uk-92" value="" style="endArrow=classic;html=1;rounded=0;entryX=0.5;entryY=0;entryDx=0;entryDy=0;fillColor=#0050ef;strokeColor=#001DBC;exitX=1;exitY=0.5;exitDx=0;exitDy=0;" parent="1" source="KHE4-WIelxEUgAE3A5Uk-79" target="KHE4-WIelxEUgAE3A5Uk-90" edge="1">
          <mxGeometry width="50" height="50" relative="1" as="geometry">
            <mxPoint x="460" y="220" as="sourcePoint" />
            <mxPoint x="480" y="240" as="targetPoint" />
            <Array as="points" />
          </mxGeometry>
        </mxCell>
        <mxCell id="KHE4-WIelxEUgAE3A5Uk-93" value="&lt;font size=&quot;1&quot;&gt;section&lt;/font&gt;&lt;div&gt;&lt;font size=&quot;1&quot;&gt;&lt;i&gt;regiones&lt;/i&gt;&lt;/font&gt;&lt;/div&gt;" style="ellipse;whiteSpace=wrap;html=1;aspect=fixed;fillColor=#60a917;fontColor=light-dark(#FFFFFF,#FFFFFF);strokeColor=#2D7600;" parent="1" vertex="1">
          <mxGeometry x="500" y="240" width="40" height="40" as="geometry" />
        </mxCell>
        <mxCell id="KHE4-WIelxEUgAE3A5Uk-94" value="&lt;font size=&quot;1&quot;&gt;section&lt;/font&gt;&lt;div&gt;&lt;font size=&quot;1&quot;&gt;&lt;i&gt;canaless&lt;/i&gt;&lt;/font&gt;&lt;/div&gt;" style="ellipse;whiteSpace=wrap;html=1;aspect=fixed;fillColor=#60a917;fontColor=light-dark(#FFFFFF,#FFFFFF);strokeColor=#2D7600;" parent="1" vertex="1">
          <mxGeometry x="580" y="240" width="40" height="40" as="geometry" />
        </mxCell>
        <mxCell id="KHE4-WIelxEUgAE3A5Uk-95" value="" style="endArrow=classic;html=1;rounded=0;entryX=0.5;entryY=0;entryDx=0;entryDy=0;fillColor=#0050ef;strokeColor=#001DBC;exitX=0;exitY=0.5;exitDx=0;exitDy=0;" parent="1" source="KHE4-WIelxEUgAE3A5Uk-80" target="KHE4-WIelxEUgAE3A5Uk-93" edge="1">
          <mxGeometry width="50" height="50" relative="1" as="geometry">
            <mxPoint x="550" y="310" as="sourcePoint" />
            <mxPoint x="630" y="330" as="targetPoint" />
            <Array as="points" />
          </mxGeometry>
        </mxCell>
        <mxCell id="KHE4-WIelxEUgAE3A5Uk-96" value="" style="endArrow=classic;html=1;rounded=0;entryX=0.5;entryY=0;entryDx=0;entryDy=0;fillColor=#0050ef;strokeColor=#001DBC;exitX=1;exitY=0.5;exitDx=0;exitDy=0;" parent="1" target="KHE4-WIelxEUgAE3A5Uk-94" edge="1">
          <mxGeometry width="50" height="50" relative="1" as="geometry">
            <mxPoint x="580" y="220" as="sourcePoint" />
            <mxPoint x="660" y="240" as="targetPoint" />
            <Array as="points" />
          </mxGeometry>
        </mxCell>
        <mxCell id="KHE4-WIelxEUgAE3A5Uk-97" value="&lt;font size=&quot;1&quot;&gt;h4&lt;/font&gt;" style="ellipse;whiteSpace=wrap;html=1;aspect=fixed;fillColor=#60a917;fontColor=light-dark(#FFFFFF,#FFFFFF);strokeColor=#2D7600;" parent="1" vertex="1">
          <mxGeometry x="630" y="240" width="40" height="40" as="geometry" />
        </mxCell>
        <mxCell id="KHE4-WIelxEUgAE3A5Uk-99" value="&lt;font size=&quot;1&quot;&gt;table&lt;/font&gt;" style="ellipse;whiteSpace=wrap;html=1;aspect=fixed;fillColor=#60a917;fontColor=light-dark(#FFFFFF,#FFFFFF);strokeColor=#2D7600;" parent="1" vertex="1">
          <mxGeometry x="690" y="240" width="40" height="40" as="geometry" />
        </mxCell>
        <mxCell id="KHE4-WIelxEUgAE3A5Uk-100" value="" style="endArrow=classic;html=1;rounded=0;entryX=0.5;entryY=0;entryDx=0;entryDy=0;fillColor=#0050ef;strokeColor=#001DBC;exitX=0;exitY=0.5;exitDx=0;exitDy=0;" parent="1" source="KHE4-WIelxEUgAE3A5Uk-81" target="KHE4-WIelxEUgAE3A5Uk-97" edge="1">
          <mxGeometry width="50" height="50" relative="1" as="geometry">
            <mxPoint x="590" y="230" as="sourcePoint" />
            <mxPoint x="610" y="250" as="targetPoint" />
            <Array as="points" />
          </mxGeometry>
        </mxCell>
        <mxCell id="KHE4-WIelxEUgAE3A5Uk-101" value="" style="endArrow=classic;html=1;rounded=0;entryX=0.5;entryY=0;entryDx=0;entryDy=0;fillColor=#0050ef;strokeColor=#001DBC;exitX=1;exitY=0.5;exitDx=0;exitDy=0;" parent="1" edge="1">
          <mxGeometry width="50" height="50" relative="1" as="geometry">
            <mxPoint x="580" y="230" as="sourcePoint" />
            <mxPoint x="600" y="250" as="targetPoint" />
            <Array as="points" />
          </mxGeometry>
        </mxCell>
        <mxCell id="KHE4-WIelxEUgAE3A5Uk-102" value="" style="endArrow=classic;html=1;rounded=0;entryX=0.5;entryY=0;entryDx=0;entryDy=0;fillColor=#0050ef;strokeColor=#001DBC;exitX=1;exitY=0.5;exitDx=0;exitDy=0;" parent="1" source="KHE4-WIelxEUgAE3A5Uk-81" edge="1">
          <mxGeometry width="50" height="50" relative="1" as="geometry">
            <mxPoint x="730" y="220" as="sourcePoint" />
            <mxPoint x="720" y="240" as="targetPoint" />
            <Array as="points" />
          </mxGeometry>
        </mxCell>
        <mxCell id="KHE4-WIelxEUgAE3A5Uk-103" value="&lt;font size=&quot;1&quot;&gt;h4&lt;/font&gt;" style="ellipse;whiteSpace=wrap;html=1;aspect=fixed;fillColor=#60a917;fontColor=light-dark(#FFFFFF,#FFFFFF);strokeColor=#2D7600;" parent="1" vertex="1">
          <mxGeometry x="740" y="240" width="40" height="40" as="geometry" />
        </mxCell>
        <mxCell id="KHE4-WIelxEUgAE3A5Uk-104" value="&lt;font size=&quot;1&quot;&gt;details&lt;/font&gt;" style="ellipse;whiteSpace=wrap;html=1;aspect=fixed;fillColor=#60a917;fontColor=light-dark(#FFFFFF,#FFFFFF);strokeColor=#2D7600;" parent="1" vertex="1">
          <mxGeometry x="800" y="240" width="40" height="40" as="geometry" />
        </mxCell>
        <mxCell id="KHE4-WIelxEUgAE3A5Uk-105" value="" style="endArrow=classic;html=1;rounded=0;entryX=1;entryY=0;entryDx=0;entryDy=0;fillColor=#0050ef;strokeColor=#001DBC;exitX=1;exitY=0.5;exitDx=0;exitDy=0;" parent="1" source="KHE4-WIelxEUgAE3A5Uk-82" target="KHE4-WIelxEUgAE3A5Uk-104" edge="1">
          <mxGeometry width="50" height="50" relative="1" as="geometry">
            <mxPoint x="760" y="330" as="sourcePoint" />
            <mxPoint x="780" y="350" as="targetPoint" />
            <Array as="points" />
          </mxGeometry>
        </mxCell>
        <mxCell id="KHE4-WIelxEUgAE3A5Uk-106" value="" style="endArrow=classic;html=1;rounded=0;entryX=0.5;entryY=0;entryDx=0;entryDy=0;fillColor=#0050ef;strokeColor=#001DBC;exitX=0;exitY=0.5;exitDx=0;exitDy=0;" parent="1" source="KHE4-WIelxEUgAE3A5Uk-82" edge="1">
          <mxGeometry width="50" height="50" relative="1" as="geometry">
            <mxPoint x="740" y="220" as="sourcePoint" />
            <mxPoint x="760" y="240" as="targetPoint" />
            <Array as="points" />
          </mxGeometry>
        </mxCell>
        <mxCell id="KHE4-WIelxEUgAE3A5Uk-107" value="&lt;font size=&quot;1&quot;&gt;p&lt;/font&gt;" style="ellipse;whiteSpace=wrap;html=1;aspect=fixed;fillColor=#60a917;fontColor=light-dark(#FFFFFF,#FFFFFF);strokeColor=#2D7600;" parent="1" vertex="1">
          <mxGeometry x="900" y="240" width="40" height="40" as="geometry" />
        </mxCell>
        <mxCell id="KHE4-WIelxEUgAE3A5Uk-108" value="" style="endArrow=classic;html=1;rounded=0;fillColor=#0050ef;strokeColor=#001DBC;exitX=1;exitY=0.5;exitDx=0;exitDy=0;entryX=0.5;entryY=0;entryDx=0;entryDy=0;" parent="1" source="KHE4-WIelxEUgAE3A5Uk-83" target="KHE4-WIelxEUgAE3A5Uk-107" edge="1">
          <mxGeometry width="50" height="50" relative="1" as="geometry">
            <mxPoint x="820" y="230" as="sourcePoint" />
            <mxPoint x="850" y="250" as="targetPoint" />
            <Array as="points" />
          </mxGeometry>
        </mxCell>
        <mxCell id="KHE4-WIelxEUgAE3A5Uk-109" value="&lt;font size=&quot;1&quot;&gt;header&lt;/font&gt;" style="ellipse;whiteSpace=wrap;html=1;aspect=fixed;fillColor=#60a917;fontColor=light-dark(#FFFFFF,#FFFFFF);strokeColor=#2D7600;" parent="1" vertex="1">
          <mxGeometry x="-60" y="360" width="40" height="40" as="geometry" />
        </mxCell>
        <mxCell id="KHE4-WIelxEUgAE3A5Uk-110" value="&lt;font size=&quot;1&quot;&gt;section&lt;/font&gt;&lt;div&gt;&lt;font size=&quot;1&quot;&gt;&lt;i&gt;embudo&lt;/i&gt;&lt;/font&gt;&lt;/div&gt;" style="ellipse;whiteSpace=wrap;html=1;aspect=fixed;fillColor=#60a917;fontColor=light-dark(#FFFFFF,#FFFFFF);strokeColor=#2D7600;" parent="1" vertex="1">
          <mxGeometry x="66" y="360" width="40" height="40" as="geometry" />
        </mxCell>
        <mxCell id="KHE4-WIelxEUgAE3A5Uk-111" value="&lt;font size=&quot;1&quot;&gt;section&lt;/font&gt;&lt;div&gt;&lt;font size=&quot;1&quot;&gt;&lt;i&gt;medios&lt;/i&gt;&lt;/font&gt;&lt;/div&gt;" style="ellipse;whiteSpace=wrap;html=1;aspect=fixed;fillColor=#60a917;fontColor=light-dark(#FFFFFF,#FFFFFF);strokeColor=#2D7600;" parent="1" vertex="1">
          <mxGeometry x="177" y="360" width="40" height="40" as="geometry" />
        </mxCell>
        <mxCell id="KHE4-WIelxEUgAE3A5Uk-112" value="&lt;font size=&quot;1&quot;&gt;section&lt;/font&gt;&lt;div&gt;&lt;font size=&quot;1&quot;&gt;&lt;i&gt;encuesta&lt;/i&gt;&lt;/font&gt;&lt;/div&gt;" style="ellipse;whiteSpace=wrap;html=1;aspect=fixed;fillColor=#60a917;fontColor=light-dark(#FFFFFF,#FFFFFF);strokeColor=#2D7600;" parent="1" vertex="1">
          <mxGeometry x="286" y="360" width="40" height="40" as="geometry" />
        </mxCell>
        <mxCell id="KHE4-WIelxEUgAE3A5Uk-113" value="&lt;font size=&quot;1&quot;&gt;footer&lt;/font&gt;" style="ellipse;whiteSpace=wrap;html=1;aspect=fixed;fillColor=#60a917;fontColor=light-dark(#FFFFFF,#FFFFFF);strokeColor=#2D7600;" parent="1" vertex="1">
          <mxGeometry x="366" y="360" width="40" height="40" as="geometry" />
        </mxCell>
        <mxCell id="KHE4-WIelxEUgAE3A5Uk-114" value="" style="endArrow=classic;html=1;rounded=0;fillColor=#0050ef;strokeColor=#001DBC;exitX=0;exitY=0.5;exitDx=0;exitDy=0;entryX=0.5;entryY=0;entryDx=0;entryDy=0;" parent="1" source="KHE4-WIelxEUgAE3A5Uk-72" target="KHE4-WIelxEUgAE3A5Uk-109" edge="1">
          <mxGeometry width="50" height="50" relative="1" as="geometry">
            <mxPoint x="-14" y="430" as="sourcePoint" />
            <mxPoint x="-4" y="450" as="targetPoint" />
            <Array as="points" />
          </mxGeometry>
        </mxCell>
        <mxCell id="KHE4-WIelxEUgAE3A5Uk-115" value="" style="endArrow=classic;html=1;rounded=0;fillColor=#0050ef;strokeColor=#001DBC;exitX=1.04;exitY=0.65;exitDx=0;exitDy=0;entryX=0.5;entryY=0;entryDx=0;entryDy=0;exitPerimeter=0;" parent="1" source="KHE4-WIelxEUgAE3A5Uk-72" target="KHE4-WIelxEUgAE3A5Uk-110" edge="1">
          <mxGeometry width="50" height="50" relative="1" as="geometry">
            <mxPoint x="-14" y="440" as="sourcePoint" />
            <mxPoint x="-4" y="460" as="targetPoint" />
            <Array as="points" />
          </mxGeometry>
        </mxCell>
        <mxCell id="KHE4-WIelxEUgAE3A5Uk-116" value="" style="endArrow=classic;html=1;rounded=0;fillColor=#0050ef;strokeColor=#001DBC;exitX=1;exitY=0.75;exitDx=0;exitDy=0;entryX=0.75;entryY=0;entryDx=0;entryDy=0;exitPerimeter=0;entryPerimeter=0;" parent="1" source="KHE4-WIelxEUgAE3A5Uk-72" target="KHE4-WIelxEUgAE3A5Uk-111" edge="1">
          <mxGeometry width="50" height="50" relative="1" as="geometry">
            <mxPoint x="66" y="480" as="sourcePoint" />
            <mxPoint x="76" y="500" as="targetPoint" />
            <Array as="points" />
          </mxGeometry>
        </mxCell>
        <mxCell id="KHE4-WIelxEUgAE3A5Uk-117" value="" style="endArrow=classic;html=1;rounded=0;fillColor=#0050ef;strokeColor=#001DBC;exitX=1;exitY=0.5;exitDx=0;exitDy=0;entryX=0.324;entryY=0.06;entryDx=0;entryDy=0;entryPerimeter=0;" parent="1" source="KHE4-WIelxEUgAE3A5Uk-72" target="KHE4-WIelxEUgAE3A5Uk-112" edge="1">
          <mxGeometry width="50" height="50" relative="1" as="geometry">
            <mxPoint x="176" y="450" as="sourcePoint" />
            <mxPoint x="186" y="470" as="targetPoint" />
            <Array as="points" />
          </mxGeometry>
        </mxCell>
        <mxCell id="KHE4-WIelxEUgAE3A5Uk-118" value="" style="endArrow=classic;html=1;rounded=0;fillColor=#0050ef;strokeColor=#001DBC;exitX=1;exitY=0.5;exitDx=0;exitDy=0;entryX=0.25;entryY=0;entryDx=0;entryDy=0;entryPerimeter=0;" parent="1" source="KHE4-WIelxEUgAE3A5Uk-72" target="KHE4-WIelxEUgAE3A5Uk-113" edge="1">
          <mxGeometry width="50" height="50" relative="1" as="geometry">
            <mxPoint x="156" y="350" as="sourcePoint" />
            <mxPoint x="166" y="370" as="targetPoint" />
            <Array as="points" />
          </mxGeometry>
        </mxCell>
        <mxCell id="KHE4-WIelxEUgAE3A5Uk-119" value="&lt;font size=&quot;1&quot;&gt;h3&lt;/font&gt;" style="ellipse;whiteSpace=wrap;html=1;aspect=fixed;fillColor=#60a917;fontColor=light-dark(#FFFFFF,#FFFFFF);strokeColor=#2D7600;" parent="1" vertex="1">
          <mxGeometry x="-100" y="400" width="40" height="40" as="geometry" />
        </mxCell>
        <mxCell id="KHE4-WIelxEUgAE3A5Uk-120" value="&lt;font size=&quot;1&quot;&gt;p&lt;/font&gt;" style="ellipse;whiteSpace=wrap;html=1;aspect=fixed;fillColor=#60a917;fontColor=light-dark(#FFFFFF,#FFFFFF);strokeColor=#2D7600;" parent="1" vertex="1">
          <mxGeometry x="-34" y="400" width="40" height="40" as="geometry" />
        </mxCell>
        <mxCell id="KHE4-WIelxEUgAE3A5Uk-121" value="&lt;font size=&quot;1&quot;&gt;section&lt;/font&gt;&lt;div&gt;&lt;font size=&quot;1&quot;&gt;&lt;i&gt;regiones&lt;/i&gt;&lt;/font&gt;&lt;/div&gt;" style="ellipse;whiteSpace=wrap;html=1;aspect=fixed;fillColor=#60a917;fontColor=light-dark(#FFFFFF,#FFFFFF);strokeColor=#2D7600;" parent="1" vertex="1">
          <mxGeometry x="26" y="400" width="40" height="40" as="geometry" />
        </mxCell>
        <mxCell id="KHE4-WIelxEUgAE3A5Uk-122" value="&lt;font size=&quot;1&quot;&gt;section&lt;/font&gt;&lt;div&gt;&lt;font size=&quot;1&quot;&gt;&lt;i&gt;canaless&lt;/i&gt;&lt;/font&gt;&lt;/div&gt;" style="ellipse;whiteSpace=wrap;html=1;aspect=fixed;fillColor=#60a917;fontColor=light-dark(#FFFFFF,#FFFFFF);strokeColor=#2D7600;" parent="1" vertex="1">
          <mxGeometry x="106" y="400" width="40" height="40" as="geometry" />
        </mxCell>
        <mxCell id="KHE4-WIelxEUgAE3A5Uk-123" value="&lt;font size=&quot;1&quot;&gt;h4&lt;/font&gt;" style="ellipse;whiteSpace=wrap;html=1;aspect=fixed;fillColor=#60a917;fontColor=light-dark(#FFFFFF,#FFFFFF);strokeColor=#2D7600;" parent="1" vertex="1">
          <mxGeometry x="156" y="400" width="40" height="40" as="geometry" />
        </mxCell>
        <mxCell id="KHE4-WIelxEUgAE3A5Uk-124" value="&lt;font size=&quot;1&quot;&gt;table&lt;/font&gt;" style="ellipse;whiteSpace=wrap;html=1;aspect=fixed;fillColor=#60a917;fontColor=light-dark(#FFFFFF,#FFFFFF);strokeColor=#2D7600;" parent="1" vertex="1">
          <mxGeometry x="216" y="400" width="40" height="40" as="geometry" />
        </mxCell>
        <mxCell id="KHE4-WIelxEUgAE3A5Uk-125" value="&lt;font size=&quot;1&quot;&gt;h4&lt;/font&gt;" style="ellipse;whiteSpace=wrap;html=1;aspect=fixed;fillColor=#60a917;fontColor=light-dark(#FFFFFF,#FFFFFF);strokeColor=#2D7600;" parent="1" vertex="1">
          <mxGeometry x="266" y="400" width="40" height="40" as="geometry" />
        </mxCell>
        <mxCell id="KHE4-WIelxEUgAE3A5Uk-126" value="&lt;font size=&quot;1&quot;&gt;details&lt;/font&gt;" style="ellipse;whiteSpace=wrap;html=1;aspect=fixed;fillColor=#60a917;fontColor=light-dark(#FFFFFF,#FFFFFF);strokeColor=#2D7600;" parent="1" vertex="1">
          <mxGeometry x="326" y="400" width="40" height="40" as="geometry" />
        </mxCell>
        <mxCell id="KHE4-WIelxEUgAE3A5Uk-127" value="&lt;font size=&quot;1&quot;&gt;p&lt;/font&gt;" style="ellipse;whiteSpace=wrap;html=1;aspect=fixed;fillColor=#60a917;fontColor=light-dark(#FFFFFF,#FFFFFF);strokeColor=#2D7600;" parent="1" vertex="1">
          <mxGeometry x="386" y="400" width="40" height="40" as="geometry" />
        </mxCell>
        <mxCell id="KHE4-WIelxEUgAE3A5Uk-128" value="" style="endArrow=classic;html=1;rounded=0;fillColor=#0050ef;strokeColor=#001DBC;exitX=0;exitY=0.5;exitDx=0;exitDy=0;entryX=0.5;entryY=0;entryDx=0;entryDy=0;" parent="1" target="KHE4-WIelxEUgAE3A5Uk-119" edge="1">
          <mxGeometry width="50" height="50" relative="1" as="geometry">
            <mxPoint x="-60" y="380" as="sourcePoint" />
            <mxPoint x="-106" y="400" as="targetPoint" />
            <Array as="points" />
          </mxGeometry>
        </mxCell>
        <mxCell id="KHE4-WIelxEUgAE3A5Uk-129" value="" style="endArrow=classic;html=1;rounded=0;fillColor=#0050ef;strokeColor=#001DBC;exitX=0;exitY=0.5;exitDx=0;exitDy=0;entryX=0.5;entryY=0;entryDx=0;entryDy=0;" parent="1" target="KHE4-WIelxEUgAE3A5Uk-120" edge="1">
          <mxGeometry width="50" height="50" relative="1" as="geometry">
            <mxPoint x="-20" y="380" as="sourcePoint" />
            <mxPoint x="-40" y="400" as="targetPoint" />
            <Array as="points" />
          </mxGeometry>
        </mxCell>
        <mxCell id="KHE4-WIelxEUgAE3A5Uk-130" value="" style="endArrow=classic;html=1;rounded=0;fillColor=#0050ef;strokeColor=#001DBC;exitX=0;exitY=0.5;exitDx=0;exitDy=0;entryX=0.5;entryY=0;entryDx=0;entryDy=0;" parent="1" edge="1">
          <mxGeometry width="50" height="50" relative="1" as="geometry">
            <mxPoint x="66" y="380" as="sourcePoint" />
            <mxPoint x="46" y="400" as="targetPoint" />
            <Array as="points" />
          </mxGeometry>
        </mxCell>
        <mxCell id="KHE4-WIelxEUgAE3A5Uk-131" value="" style="endArrow=classic;html=1;rounded=0;fillColor=#0050ef;strokeColor=#001DBC;exitX=1;exitY=0.5;exitDx=0;exitDy=0;entryX=0.5;entryY=0;entryDx=0;entryDy=0;" parent="1" source="KHE4-WIelxEUgAE3A5Uk-110" target="KHE4-WIelxEUgAE3A5Uk-122" edge="1">
          <mxGeometry width="50" height="50" relative="1" as="geometry">
            <mxPoint x="226" y="490" as="sourcePoint" />
            <mxPoint x="206" y="510" as="targetPoint" />
            <Array as="points" />
          </mxGeometry>
        </mxCell>
        <mxCell id="KHE4-WIelxEUgAE3A5Uk-132" value="" style="endArrow=classic;html=1;rounded=0;fillColor=#0050ef;strokeColor=#001DBC;exitX=0;exitY=0.5;exitDx=0;exitDy=0;entryX=0.363;entryY=-0.056;entryDx=0;entryDy=0;entryPerimeter=0;" parent="1" source="KHE4-WIelxEUgAE3A5Uk-111" target="KHE4-WIelxEUgAE3A5Uk-123" edge="1">
          <mxGeometry width="50" height="50" relative="1" as="geometry">
            <mxPoint x="177" y="400" as="sourcePoint" />
            <mxPoint x="157" y="420" as="targetPoint" />
            <Array as="points" />
          </mxGeometry>
        </mxCell>
        <mxCell id="KHE4-WIelxEUgAE3A5Uk-133" value="" style="endArrow=classic;html=1;rounded=0;fillColor=#0050ef;strokeColor=#001DBC;entryX=0.5;entryY=0;entryDx=0;entryDy=0;exitX=0.912;exitY=0.562;exitDx=0;exitDy=0;exitPerimeter=0;" parent="1" source="KHE4-WIelxEUgAE3A5Uk-111" target="KHE4-WIelxEUgAE3A5Uk-124" edge="1">
          <mxGeometry width="50" height="50" relative="1" as="geometry">
            <mxPoint x="186" y="390" as="sourcePoint" />
            <mxPoint x="166" y="410" as="targetPoint" />
            <Array as="points" />
          </mxGeometry>
        </mxCell>
        <mxCell id="KHE4-WIelxEUgAE3A5Uk-134" value="" style="endArrow=classic;html=1;rounded=0;fillColor=#0050ef;strokeColor=#001DBC;exitX=0;exitY=0.5;exitDx=0;exitDy=0;entryX=0.319;entryY=0.091;entryDx=0;entryDy=0;entryPerimeter=0;" parent="1" source="KHE4-WIelxEUgAE3A5Uk-112" target="KHE4-WIelxEUgAE3A5Uk-125" edge="1">
          <mxGeometry width="50" height="50" relative="1" as="geometry">
            <mxPoint x="316" y="470" as="sourcePoint" />
            <mxPoint x="296" y="490" as="targetPoint" />
            <Array as="points" />
          </mxGeometry>
        </mxCell>
        <mxCell id="KHE4-WIelxEUgAE3A5Uk-135" value="" style="endArrow=classic;html=1;rounded=0;fillColor=#0050ef;strokeColor=#001DBC;exitX=1;exitY=0.5;exitDx=0;exitDy=0;entryX=0.5;entryY=0;entryDx=0;entryDy=0;" parent="1" source="KHE4-WIelxEUgAE3A5Uk-112" edge="1">
          <mxGeometry width="50" height="50" relative="1" as="geometry">
            <mxPoint x="366" y="380" as="sourcePoint" />
            <mxPoint x="346" y="400" as="targetPoint" />
            <Array as="points" />
          </mxGeometry>
        </mxCell>
        <mxCell id="KHE4-WIelxEUgAE3A5Uk-136" value="" style="endArrow=classic;html=1;rounded=0;fillColor=#0050ef;strokeColor=#001DBC;exitX=1;exitY=0.5;exitDx=0;exitDy=0;entryX=0.746;entryY=0.062;entryDx=0;entryDy=0;entryPerimeter=0;" parent="1" source="KHE4-WIelxEUgAE3A5Uk-113" target="KHE4-WIelxEUgAE3A5Uk-127" edge="1">
          <mxGeometry width="50" height="50" relative="1" as="geometry">
            <mxPoint x="426" y="450" as="sourcePoint" />
            <mxPoint x="406" y="470" as="targetPoint" />
            <Array as="points" />
          </mxGeometry>
        </mxCell>
        <mxCell id="KHE4-WIelxEUgAE3A5Uk-137" value="" style="endArrow=classic;html=1;rounded=0;entryX=0.5;entryY=0;entryDx=0;entryDy=0;fillColor=#0050ef;strokeColor=#001DBC;" parent="1" target="KHE4-WIelxEUgAE3A5Uk-19" edge="1">
          <mxGeometry width="50" height="50" relative="1" as="geometry">
            <mxPoint x="600" y="60" as="sourcePoint" />
            <mxPoint x="730" y="90" as="targetPoint" />
            <Array as="points">
              <mxPoint x="1570" y="190" />
              <mxPoint x="1440" y="520" />
            </Array>
          </mxGeometry>
        </mxCell>
        <mxCell id="KHE4-WIelxEUgAE3A5Uk-138" value="" style="endArrow=classic;html=1;rounded=0;fillColor=#0050ef;strokeColor=#001DBC;" parent="1" source="KHE4-WIelxEUgAE3A5Uk-18" edge="1" target="KHE4-WIelxEUgAE3A5Uk-21">
          <mxGeometry width="50" height="50" relative="1" as="geometry">
            <mxPoint x="1080" y="100" as="sourcePoint" />
            <mxPoint x="770" y="340" as="targetPoint" />
            <Array as="points">
              <mxPoint x="1650" y="170" />
              <mxPoint x="1450" y="530" />
            </Array>
          </mxGeometry>
        </mxCell>
        <mxCell id="KHE4-WIelxEUgAE3A5Uk-142" value="" style="endArrow=classic;html=1;rounded=0;fillColor=#0050ef;strokeColor=#001DBC;exitX=0.95;exitY=0.35;exitDx=0;exitDy=0;exitPerimeter=0;" parent="1" source="KHE4-WIelxEUgAE3A5Uk-18" target="KHE4-WIelxEUgAE3A5Uk-23" edge="1">
          <mxGeometry width="50" height="50" relative="1" as="geometry">
            <mxPoint x="710" y="100" as="sourcePoint" />
            <mxPoint x="1520" y="340" as="targetPoint" />
            <Array as="points">
              <mxPoint x="1690" y="140" />
            </Array>
          </mxGeometry>
        </mxCell>
        <mxCell id="KHE4-WIelxEUgAE3A5Uk-23" value="&lt;font size=&quot;1&quot;&gt;script&lt;/font&gt;" style="ellipse;whiteSpace=wrap;html=1;aspect=fixed;fillColor=#60a917;fontColor=light-dark(#FFFFFF,#FFFFFF);strokeColor=#2D7600;" parent="1" vertex="1">
          <mxGeometry x="1440" y="565" width="40" height="40" as="geometry" />
        </mxCell>
        <mxCell id="KHE4-WIelxEUgAE3A5Uk-143" value="&lt;font size=&quot;1&quot;&gt;p&lt;/font&gt;&lt;div&gt;&lt;font size=&quot;1&quot;&gt;span&lt;/font&gt;&lt;/div&gt;" style="ellipse;whiteSpace=wrap;html=1;aspect=fixed;fillColor=#60a917;fontColor=light-dark(#FFFFFF,#FFFFFF);strokeColor=#2D7600;" parent="1" vertex="1">
          <mxGeometry x="970" y="605" width="40" height="40" as="geometry" />
        </mxCell>
        <mxCell id="KHE4-WIelxEUgAE3A5Uk-144" value="&lt;font size=&quot;1&quot;&gt;address&lt;/font&gt;" style="ellipse;whiteSpace=wrap;html=1;aspect=fixed;fillColor=#60a917;fontColor=light-dark(#FFFFFF,#FFFFFF);strokeColor=#2D7600;" parent="1" vertex="1">
          <mxGeometry x="1040" y="605" width="40" height="40" as="geometry" />
        </mxCell>
        <mxCell id="KHE4-WIelxEUgAE3A5Uk-145" value="&lt;font size=&quot;1&quot;&gt;p&lt;/font&gt;" style="ellipse;whiteSpace=wrap;html=1;aspect=fixed;fillColor=#60a917;fontColor=light-dark(#FFFFFF,#FFFFFF);strokeColor=#2D7600;" parent="1" vertex="1">
          <mxGeometry x="1010" y="645" width="40" height="40" as="geometry" />
        </mxCell>
        <mxCell id="KHE4-WIelxEUgAE3A5Uk-146" value="&lt;font size=&quot;1&quot;&gt;p&lt;/font&gt;&lt;div&gt;&lt;font size=&quot;1&quot;&gt;a&lt;/font&gt;&lt;/div&gt;" style="ellipse;whiteSpace=wrap;html=1;aspect=fixed;fillColor=#60a917;fontColor=light-dark(#FFFFFF,#FFFFFF);strokeColor=#2D7600;" parent="1" vertex="1">
          <mxGeometry x="1070" y="645" width="40" height="40" as="geometry" />
        </mxCell>
        <mxCell id="KHE4-WIelxEUgAE3A5Uk-147" value="" style="endArrow=classic;html=1;rounded=0;exitX=0;exitY=0.5;exitDx=0;exitDy=0;fillColor=#0050ef;strokeColor=#001DBC;entryX=0.754;entryY=0.089;entryDx=0;entryDy=0;entryPerimeter=0;" parent="1" target="KHE4-WIelxEUgAE3A5Uk-143" edge="1">
          <mxGeometry width="50" height="50" relative="1" as="geometry">
            <mxPoint x="1080" y="585" as="sourcePoint" />
            <mxPoint x="1020" y="605" as="targetPoint" />
            <Array as="points" />
          </mxGeometry>
        </mxCell>
        <mxCell id="KHE4-WIelxEUgAE3A5Uk-148" value="" style="endArrow=classic;html=1;rounded=0;exitX=0;exitY=0.5;exitDx=0;exitDy=0;fillColor=#0050ef;strokeColor=#001DBC;entryX=0.646;entryY=-0.054;entryDx=0;entryDy=0;entryPerimeter=0;" parent="1" source="KHE4-WIelxEUgAE3A5Uk-19" target="KHE4-WIelxEUgAE3A5Uk-144" edge="1">
          <mxGeometry width="50" height="50" relative="1" as="geometry">
            <mxPoint x="1180" y="615" as="sourcePoint" />
            <mxPoint x="1120" y="635" as="targetPoint" />
            <Array as="points" />
          </mxGeometry>
        </mxCell>
        <mxCell id="KHE4-WIelxEUgAE3A5Uk-149" value="" style="endArrow=classic;html=1;rounded=0;exitX=0;exitY=0.5;exitDx=0;exitDy=0;fillColor=#0050ef;strokeColor=#001DBC;entryX=0.5;entryY=0;entryDx=0;entryDy=0;" parent="1" source="KHE4-WIelxEUgAE3A5Uk-144" target="KHE4-WIelxEUgAE3A5Uk-145" edge="1">
          <mxGeometry width="50" height="50" relative="1" as="geometry">
            <mxPoint x="1130" y="665" as="sourcePoint" />
            <mxPoint x="1070" y="685" as="targetPoint" />
            <Array as="points" />
          </mxGeometry>
        </mxCell>
        <mxCell id="KHE4-WIelxEUgAE3A5Uk-150" value="" style="endArrow=classic;html=1;rounded=0;exitX=1;exitY=0.5;exitDx=0;exitDy=0;fillColor=#0050ef;strokeColor=#001DBC;entryX=0.5;entryY=0;entryDx=0;entryDy=0;" parent="1" source="KHE4-WIelxEUgAE3A5Uk-144" target="KHE4-WIelxEUgAE3A5Uk-146" edge="1">
          <mxGeometry width="50" height="50" relative="1" as="geometry">
            <mxPoint x="1180" y="635" as="sourcePoint" />
            <mxPoint x="1120" y="655" as="targetPoint" />
            <Array as="points" />
          </mxGeometry>
        </mxCell>
        <mxCell id="KHE4-WIelxEUgAE3A5Uk-152" value="&lt;font size=&quot;1&quot;&gt;&lt;i&gt;ul&lt;/i&gt;&lt;/font&gt;" style="ellipse;whiteSpace=wrap;html=1;aspect=fixed;fillColor=#60a917;fontColor=light-dark(#FFFFFF,#FFFFFF);strokeColor=#2D7600;" parent="1" vertex="1">
          <mxGeometry x="1220" y="605" width="40" height="40" as="geometry" />
        </mxCell>
        <mxCell id="KHE4-WIelxEUgAE3A5Uk-153" value="&lt;font size=&quot;1&quot;&gt;&lt;i&gt;li&lt;/i&gt;&lt;/font&gt;&lt;div&gt;&lt;font size=&quot;1&quot;&gt;&lt;i&gt;span&lt;/i&gt;&lt;/font&gt;&lt;/div&gt;&lt;div&gt;&lt;font size=&quot;1&quot;&gt;&lt;i&gt;1&lt;/i&gt;&lt;/font&gt;&lt;/div&gt;" style="ellipse;whiteSpace=wrap;html=1;aspect=fixed;fillColor=#60a917;fontColor=light-dark(#FFFFFF,#FFFFFF);strokeColor=#2D7600;" parent="1" vertex="1">
          <mxGeometry x="1170" y="645" width="40" height="40" as="geometry" />
        </mxCell>
        <mxCell id="KHE4-WIelxEUgAE3A5Uk-154" value="&lt;font size=&quot;1&quot;&gt;&lt;i&gt;li&amp;nbsp;&lt;/i&gt;&lt;/font&gt;&lt;div&gt;&lt;font size=&quot;1&quot;&gt;&lt;i&gt;span&lt;/i&gt;&lt;/font&gt;&lt;/div&gt;&lt;div&gt;&lt;font size=&quot;1&quot;&gt;&lt;i&gt;2&lt;/i&gt;&lt;/font&gt;&lt;/div&gt;" style="ellipse;whiteSpace=wrap;html=1;aspect=fixed;fillColor=#60a917;fontColor=light-dark(#FFFFFF,#FFFFFF);strokeColor=#2D7600;" parent="1" vertex="1">
          <mxGeometry x="1250" y="645" width="40" height="40" as="geometry" />
        </mxCell>
        <mxCell id="KHE4-WIelxEUgAE3A5Uk-155" value="&lt;font size=&quot;1&quot;&gt;&lt;i&gt;li&amp;nbsp;&lt;/i&gt;&lt;/font&gt;&lt;div&gt;&lt;font size=&quot;1&quot;&gt;&lt;i&gt;span&lt;/i&gt;&lt;/font&gt;&lt;/div&gt;&lt;div&gt;&lt;font size=&quot;1&quot;&gt;&lt;i&gt;3&lt;/i&gt;&lt;/font&gt;&lt;/div&gt;" style="ellipse;whiteSpace=wrap;html=1;aspect=fixed;fillColor=#60a917;fontColor=light-dark(#FFFFFF,#FFFFFF);strokeColor=#2D7600;" parent="1" vertex="1">
          <mxGeometry x="1310" y="645" width="40" height="40" as="geometry" />
        </mxCell>
        <mxCell id="KHE4-WIelxEUgAE3A5Uk-156" value="" style="endArrow=classic;html=1;rounded=0;entryX=0.839;entryY=0.032;entryDx=0;entryDy=0;fillColor=#0050ef;strokeColor=#001DBC;exitX=-0.046;exitY=0.361;exitDx=0;exitDy=0;exitPerimeter=0;entryPerimeter=0;" parent="1" source="KHE4-WIelxEUgAE3A5Uk-21" target="KHE4-WIelxEUgAE3A5Uk-152" edge="1">
          <mxGeometry width="50" height="50" relative="1" as="geometry">
            <mxPoint x="1290" y="615" as="sourcePoint" />
            <mxPoint x="1310" y="635" as="targetPoint" />
            <Array as="points" />
          </mxGeometry>
        </mxCell>
        <mxCell id="KHE4-WIelxEUgAE3A5Uk-157" value="" style="endArrow=classic;html=1;rounded=0;entryX=0.746;entryY=-0.025;entryDx=0;entryDy=0;fillColor=#0050ef;strokeColor=#001DBC;exitX=0;exitY=0.5;exitDx=0;exitDy=0;entryPerimeter=0;" parent="1" source="KHE4-WIelxEUgAE3A5Uk-152" target="KHE4-WIelxEUgAE3A5Uk-153" edge="1">
          <mxGeometry width="50" height="50" relative="1" as="geometry">
            <mxPoint x="1304" y="625" as="sourcePoint" />
            <mxPoint x="1280" y="652" as="targetPoint" />
            <Array as="points" />
          </mxGeometry>
        </mxCell>
        <mxCell id="KHE4-WIelxEUgAE3A5Uk-158" value="" style="endArrow=classic;html=1;rounded=0;entryX=0.5;entryY=0;entryDx=0;entryDy=0;fillColor=#0050ef;strokeColor=#001DBC;exitX=1;exitY=0.5;exitDx=0;exitDy=0;" parent="1" source="KHE4-WIelxEUgAE3A5Uk-152" target="KHE4-WIelxEUgAE3A5Uk-154" edge="1">
          <mxGeometry width="50" height="50" relative="1" as="geometry">
            <mxPoint x="1324" y="625" as="sourcePoint" />
            <mxPoint x="1300" y="652" as="targetPoint" />
            <Array as="points" />
          </mxGeometry>
        </mxCell>
        <mxCell id="KHE4-WIelxEUgAE3A5Uk-159" value="" style="endArrow=classic;html=1;rounded=0;entryX=0.5;entryY=0;entryDx=0;entryDy=0;fillColor=#0050ef;strokeColor=#001DBC;" parent="1" target="KHE4-WIelxEUgAE3A5Uk-155" edge="1">
          <mxGeometry width="50" height="50" relative="1" as="geometry">
            <mxPoint x="1260" y="625" as="sourcePoint" />
            <mxPoint x="1300" y="662" as="targetPoint" />
            <Array as="points" />
          </mxGeometry>
        </mxCell>
        <mxCell id="wlbvQ_lisMCAEKcjq9hv-1" value="&lt;font size=&quot;1&quot;&gt;section&lt;/font&gt;&lt;div&gt;&lt;font size=&quot;1&quot;&gt;&lt;i&gt;equipo&lt;/i&gt;&lt;/font&gt;&lt;/div&gt;" style="ellipse;whiteSpace=wrap;html=1;aspect=fixed;fillColor=#60a917;fontColor=light-dark(#FFFFFF,#FFFFFF);strokeColor=#2D7600;" vertex="1" parent="1">
          <mxGeometry x="1000" y="120" width="40" height="40" as="geometry" />
        </mxCell>
        <mxCell id="wlbvQ_lisMCAEKcjq9hv-2" value="" style="endArrow=classic;html=1;rounded=0;entryX=0;entryY=0.5;entryDx=0;entryDy=0;fillColor=#0050ef;strokeColor=#001DBC;exitX=1;exitY=0.5;exitDx=0;exitDy=0;" edge="1" parent="1" source="KHE4-WIelxEUgAE3A5Uk-20" target="wlbvQ_lisMCAEKcjq9hv-1">
          <mxGeometry width="50" height="50" relative="1" as="geometry">
            <mxPoint x="790" y="100" as="sourcePoint" />
            <mxPoint x="810" y="120" as="targetPoint" />
            <Array as="points" />
          </mxGeometry>
        </mxCell>
        <mxCell id="wlbvQ_lisMCAEKcjq9hv-3" value="&lt;font size=&quot;1&quot;&gt;h2&lt;/font&gt;" style="ellipse;whiteSpace=wrap;html=1;aspect=fixed;fillColor=#60a917;fontColor=light-dark(#FFFFFF,#FFFFFF);strokeColor=#2D7600;" vertex="1" parent="1">
          <mxGeometry x="960" y="160" width="40" height="40" as="geometry" />
        </mxCell>
        <mxCell id="wlbvQ_lisMCAEKcjq9hv-4" value="&lt;font size=&quot;1&quot;&gt;article&lt;/font&gt;&lt;div&gt;&lt;font size=&quot;1&quot;&gt;&lt;i&gt;equipo-desarrollo&lt;/i&gt;&lt;/font&gt;&lt;/div&gt;" style="ellipse;whiteSpace=wrap;html=1;aspect=fixed;fillColor=#60a917;fontColor=light-dark(#FFFFFF,#FFFFFF);strokeColor=#2D7600;" vertex="1" parent="1">
          <mxGeometry x="1040" y="160" width="40" height="40" as="geometry" />
        </mxCell>
        <mxCell id="wlbvQ_lisMCAEKcjq9hv-5" value="&lt;font size=&quot;1&quot;&gt;article&lt;/font&gt;&lt;div&gt;&lt;font size=&quot;1&quot;&gt;&lt;i&gt;equipo-diseÃ±o&lt;/i&gt;&lt;/font&gt;&lt;/div&gt;" style="ellipse;whiteSpace=wrap;html=1;aspect=fixed;fillColor=#60a917;fontColor=light-dark(#FFFFFF,#FFFFFF);strokeColor=#2D7600;" vertex="1" parent="1">
          <mxGeometry x="1221" y="170" width="40" height="40" as="geometry" />
        </mxCell>
        <mxCell id="wlbvQ_lisMCAEKcjq9hv-6" value="&lt;font size=&quot;1&quot;&gt;article&lt;/font&gt;&lt;div&gt;&lt;font size=&quot;1&quot;&gt;&lt;i&gt;equipo-datos&lt;/i&gt;&lt;/font&gt;&lt;/div&gt;" style="ellipse;whiteSpace=wrap;html=1;aspect=fixed;fillColor=#60a917;fontColor=light-dark(#FFFFFF,#FFFFFF);strokeColor=#2D7600;" vertex="1" parent="1">
          <mxGeometry x="1410" y="180" width="40" height="40" as="geometry" />
        </mxCell>
        <mxCell id="wlbvQ_lisMCAEKcjq9hv-7" value="&lt;font size=&quot;1&quot;&gt;header&lt;/font&gt;" style="ellipse;whiteSpace=wrap;html=1;aspect=fixed;fillColor=#60a917;fontColor=light-dark(#FFFFFF,#FFFFFF);strokeColor=#2D7600;" vertex="1" parent="1">
          <mxGeometry x="1010" y="200" width="40" height="40" as="geometry" />
        </mxCell>
        <mxCell id="wlbvQ_lisMCAEKcjq9hv-8" value="&lt;font size=&quot;1&quot;&gt;ul&lt;/font&gt;" style="ellipse;whiteSpace=wrap;html=1;aspect=fixed;fillColor=#60a917;fontColor=light-dark(#FFFFFF,#FFFFFF);strokeColor=#2D7600;" vertex="1" parent="1">
          <mxGeometry x="1070" y="200" width="40" height="40" as="geometry" />
        </mxCell>
        <mxCell id="wlbvQ_lisMCAEKcjq9hv-9" value="&lt;font size=&quot;1&quot;&gt;footer&lt;/font&gt;&lt;div&gt;&lt;font size=&quot;1&quot;&gt;small&lt;/font&gt;&lt;/div&gt;" style="ellipse;whiteSpace=wrap;html=1;aspect=fixed;fillColor=#60a917;fontColor=light-dark(#FFFFFF,#FFFFFF);strokeColor=#2D7600;" vertex="1" parent="1">
          <mxGeometry x="1130" y="200" width="40" height="40" as="geometry" />
        </mxCell>
        <mxCell id="wlbvQ_lisMCAEKcjq9hv-10" value="" style="endArrow=classic;html=1;rounded=0;entryX=0.5;entryY=0;entryDx=0;entryDy=0;fillColor=#0050ef;strokeColor=#001DBC;exitX=0.05;exitY=0.675;exitDx=0;exitDy=0;exitPerimeter=0;" edge="1" parent="1" source="wlbvQ_lisMCAEKcjq9hv-1" target="wlbvQ_lisMCAEKcjq9hv-3">
          <mxGeometry width="50" height="50" relative="1" as="geometry">
            <mxPoint x="1040" y="250" as="sourcePoint" />
            <mxPoint x="1054" y="276" as="targetPoint" />
            <Array as="points" />
          </mxGeometry>
        </mxCell>
        <mxCell id="wlbvQ_lisMCAEKcjq9hv-11" value="" style="endArrow=classic;html=1;rounded=0;entryX=0.5;entryY=0;entryDx=0;entryDy=0;fillColor=#0050ef;strokeColor=#001DBC;exitX=1;exitY=0.5;exitDx=0;exitDy=0;" edge="1" parent="1" source="wlbvQ_lisMCAEKcjq9hv-1" target="wlbvQ_lisMCAEKcjq9hv-4">
          <mxGeometry width="50" height="50" relative="1" as="geometry">
            <mxPoint x="1040" y="280" as="sourcePoint" />
            <mxPoint x="1054" y="306" as="targetPoint" />
            <Array as="points" />
          </mxGeometry>
        </mxCell>
        <mxCell id="wlbvQ_lisMCAEKcjq9hv-12" value="" style="endArrow=classic;html=1;rounded=0;entryX=0.5;entryY=0;entryDx=0;entryDy=0;fillColor=#0050ef;strokeColor=#001DBC;exitX=0;exitY=0.5;exitDx=0;exitDy=0;" edge="1" parent="1" source="wlbvQ_lisMCAEKcjq9hv-4" target="wlbvQ_lisMCAEKcjq9hv-7">
          <mxGeometry width="50" height="50" relative="1" as="geometry">
            <mxPoint x="1080" y="290" as="sourcePoint" />
            <mxPoint x="1094" y="316" as="targetPoint" />
            <Array as="points" />
          </mxGeometry>
        </mxCell>
        <mxCell id="wlbvQ_lisMCAEKcjq9hv-13" value="" style="endArrow=classic;html=1;rounded=0;entryX=1;entryY=0;entryDx=0;entryDy=0;fillColor=#0050ef;strokeColor=#001DBC;exitX=0.9;exitY=0.675;exitDx=0;exitDy=0;exitPerimeter=0;" edge="1" parent="1" source="wlbvQ_lisMCAEKcjq9hv-4" target="wlbvQ_lisMCAEKcjq9hv-8">
          <mxGeometry width="50" height="50" relative="1" as="geometry">
            <mxPoint x="1120" y="300" as="sourcePoint" />
            <mxPoint x="1134" y="326" as="targetPoint" />
            <Array as="points" />
          </mxGeometry>
        </mxCell>
        <mxCell id="wlbvQ_lisMCAEKcjq9hv-14" value="" style="endArrow=classic;html=1;rounded=0;entryX=0;entryY=0;entryDx=0;entryDy=0;fillColor=#0050ef;strokeColor=#001DBC;exitX=1;exitY=0.5;exitDx=0;exitDy=0;" edge="1" parent="1" source="wlbvQ_lisMCAEKcjq9hv-4" target="wlbvQ_lisMCAEKcjq9hv-9">
          <mxGeometry width="50" height="50" relative="1" as="geometry">
            <mxPoint x="1170" y="330" as="sourcePoint" />
            <mxPoint x="1184" y="356" as="targetPoint" />
            <Array as="points" />
          </mxGeometry>
        </mxCell>
        <mxCell id="wlbvQ_lisMCAEKcjq9hv-15" value="" style="endArrow=classic;html=1;rounded=0;fillColor=#0050ef;strokeColor=#001DBC;exitX=1;exitY=0.5;exitDx=0;exitDy=0;" edge="1" parent="1" source="wlbvQ_lisMCAEKcjq9hv-1">
          <mxGeometry width="50" height="50" relative="1" as="geometry">
            <mxPoint x="1150" y="320" as="sourcePoint" />
            <mxPoint x="1220" y="180" as="targetPoint" />
            <Array as="points" />
          </mxGeometry>
        </mxCell>
        <mxCell id="wlbvQ_lisMCAEKcjq9hv-16" value="&lt;font size=&quot;1&quot;&gt;header&lt;/font&gt;&lt;div&gt;&lt;font size=&quot;1&quot;&gt;&lt;i&gt;equipo-diseÃ±o&lt;/i&gt;&lt;/font&gt;&lt;/div&gt;" style="ellipse;whiteSpace=wrap;html=1;aspect=fixed;fillColor=#60a917;fontColor=light-dark(#FFFFFF,#FFFFFF);strokeColor=#2D7600;" vertex="1" parent="1">
          <mxGeometry x="1181" y="200" width="40" height="40" as="geometry" />
        </mxCell>
        <mxCell id="wlbvQ_lisMCAEKcjq9hv-17" value="ol" style="ellipse;whiteSpace=wrap;html=1;aspect=fixed;fillColor=#60a917;fontColor=light-dark(#FFFFFF,#FFFFFF);strokeColor=#2D7600;" vertex="1" parent="1">
          <mxGeometry x="1310" y="200" width="40" height="40" as="geometry" />
        </mxCell>
        <mxCell id="wlbvQ_lisMCAEKcjq9hv-18" value="&lt;font size=&quot;1&quot;&gt;p&lt;/font&gt;" style="ellipse;whiteSpace=wrap;html=1;aspect=fixed;fillColor=#60a917;fontColor=light-dark(#FFFFFF,#FFFFFF);strokeColor=#2D7600;" vertex="1" parent="1">
          <mxGeometry x="1260" y="200" width="40" height="40" as="geometry" />
        </mxCell>
        <mxCell id="wlbvQ_lisMCAEKcjq9hv-20" value="" style="endArrow=classic;html=1;rounded=0;entryX=0.5;entryY=0;entryDx=0;entryDy=0;fillColor=#0050ef;strokeColor=#001DBC;exitX=1;exitY=0.5;exitDx=0;exitDy=0;" edge="1" parent="1" source="wlbvQ_lisMCAEKcjq9hv-5" target="wlbvQ_lisMCAEKcjq9hv-17">
          <mxGeometry width="50" height="50" relative="1" as="geometry">
            <mxPoint x="1290" y="240" as="sourcePoint" />
            <mxPoint x="1346" y="266" as="targetPoint" />
            <Array as="points" />
          </mxGeometry>
        </mxCell>
        <mxCell id="wlbvQ_lisMCAEKcjq9hv-21" value="" style="endArrow=classic;html=1;rounded=0;entryX=0.5;entryY=0;entryDx=0;entryDy=0;fillColor=#0050ef;strokeColor=#001DBC;" edge="1" parent="1" target="wlbvQ_lisMCAEKcjq9hv-18">
          <mxGeometry width="50" height="50" relative="1" as="geometry">
            <mxPoint x="1260" y="190" as="sourcePoint" />
            <mxPoint x="1356" y="366" as="targetPoint" />
            <Array as="points" />
          </mxGeometry>
        </mxCell>
        <mxCell id="wlbvQ_lisMCAEKcjq9hv-22" value="" style="endArrow=classic;html=1;rounded=0;entryX=0.5;entryY=0;entryDx=0;entryDy=0;fillColor=#0050ef;strokeColor=#001DBC;exitX=0;exitY=0.5;exitDx=0;exitDy=0;" edge="1" parent="1" source="wlbvQ_lisMCAEKcjq9hv-5" target="wlbvQ_lisMCAEKcjq9hv-16">
          <mxGeometry width="50" height="50" relative="1" as="geometry">
            <mxPoint x="1290" y="360" as="sourcePoint" />
            <mxPoint x="1346" y="386" as="targetPoint" />
            <Array as="points" />
          </mxGeometry>
        </mxCell>
        <mxCell id="wlbvQ_lisMCAEKcjq9hv-23" value="" style="endArrow=classic;html=1;rounded=0;fillColor=#0050ef;strokeColor=#001DBC;exitX=1;exitY=0.5;exitDx=0;exitDy=0;entryX=0;entryY=0;entryDx=0;entryDy=0;" edge="1" parent="1" source="wlbvQ_lisMCAEKcjq9hv-1" target="wlbvQ_lisMCAEKcjq9hv-6">
          <mxGeometry width="50" height="50" relative="1" as="geometry">
            <mxPoint x="1160" y="160" as="sourcePoint" />
            <mxPoint x="1340" y="200" as="targetPoint" />
            <Array as="points" />
          </mxGeometry>
        </mxCell>
        <mxCell id="wlbvQ_lisMCAEKcjq9hv-24" value="&lt;font size=&quot;1&quot;&gt;header&lt;/font&gt;&lt;div&gt;&lt;font size=&quot;1&quot;&gt;h3&lt;/font&gt;&lt;/div&gt;" style="ellipse;whiteSpace=wrap;html=1;aspect=fixed;fillColor=#60a917;fontColor=light-dark(#FFFFFF,#FFFFFF);strokeColor=#2D7600;" vertex="1" parent="1">
          <mxGeometry x="1360" y="200" width="40" height="40" as="geometry" />
        </mxCell>
        <mxCell id="wlbvQ_lisMCAEKcjq9hv-25" value="&lt;font size=&quot;1&quot;&gt;aside&lt;br&gt;&lt;/font&gt;&lt;div&gt;&lt;span style=&quot;color: rgba(0, 0, 0, 0); font-family: monospace; font-size: 0px; text-align: start; text-wrap-mode: nowrap; background-color: transparent;&quot;&gt;%3CmxGraphModel%3E%3Croot%3E%3CmxCell%20id%3D%220%22%2F%3E%3CmxCell%20id%3D%221%22%20parent%3D%220%22%2F%3E%3CmxCell%20id%3D%222%22%20value%3D%22%26lt%3Bfont%20size%3D%26quot%3B1%26quot%3B%26gt%3Bheader%26lt%3B%2Ffont%26gt%3B%26lt%3Bdiv%26gt%3B%26lt%3Bfont%20size%3D%26quot%3B1%26quot%3B%26gt%3Bh3%26lt%3B%2Ffont%26gt%3B%26lt%3B%2Fdiv%26gt%3B%22%20style%3D%22ellipse%3BwhiteSpace%3Dwrap%3Bhtml%3D1%3Baspect%3Dfixed%3BfillColor%3D%2360a917%3BfontColor%3Dlight-dark(%23FFFFFF%2C%23FFFFFF)%3BstrokeColor%3D%232D7600%3B%22%20vertex%3D%221%22%20parent%3D%221%22%3E%3CmxGeometry%20x%3D%221360%22%20y%3D%22200%22%20width%3D%2240%22%20height%3D%2240%22%20as%3D%22geometry%22%2F%3E%3C%2FmxCell%3E%3C%2Froot%3E%3C%2FmxGraphModel%3E&lt;/span&gt;&lt;font size=&quot;1&quot;&gt;&lt;i&gt;deep&lt;/i&gt;&lt;/font&gt;&lt;/div&gt;" style="ellipse;whiteSpace=wrap;html=1;aspect=fixed;fillColor=#60a917;fontColor=light-dark(#FFFFFF,#FFFFFF);strokeColor=#2D7600;" vertex="1" parent="1">
          <mxGeometry x="1450" y="200" width="40" height="40" as="geometry" />
        </mxCell>
        <mxCell id="wlbvQ_lisMCAEKcjq9hv-26" value="&lt;font size=&quot;1&quot;&gt;section&lt;/font&gt;&lt;div&gt;&lt;font size=&quot;1&quot;&gt;&lt;i&gt;deep&lt;/i&gt;&lt;/font&gt;&lt;/div&gt;" style="ellipse;whiteSpace=wrap;html=1;aspect=fixed;fillColor=#60a917;fontColor=light-dark(#FFFFFF,#FFFFFF);strokeColor=#2D7600;" vertex="1" parent="1">
          <mxGeometry x="1500" y="200" width="40" height="40" as="geometry" />
        </mxCell>
        <mxCell id="wlbvQ_lisMCAEKcjq9hv-27" value="" style="endArrow=classic;html=1;rounded=0;entryX=1;entryY=0;entryDx=0;entryDy=0;fillColor=#0050ef;strokeColor=#001DBC;exitX=0;exitY=0.5;exitDx=0;exitDy=0;" edge="1" parent="1" source="wlbvQ_lisMCAEKcjq9hv-6" target="wlbvQ_lisMCAEKcjq9hv-24">
          <mxGeometry width="50" height="50" relative="1" as="geometry">
            <mxPoint x="1290" y="190" as="sourcePoint" />
            <mxPoint x="1359" y="200" as="targetPoint" />
            <Array as="points" />
          </mxGeometry>
        </mxCell>
        <mxCell id="wlbvQ_lisMCAEKcjq9hv-28" value="" style="endArrow=classic;html=1;rounded=0;entryX=0.5;entryY=0;entryDx=0;entryDy=0;fillColor=#0050ef;strokeColor=#001DBC;exitX=0.875;exitY=0.325;exitDx=0;exitDy=0;exitPerimeter=0;" edge="1" parent="1" source="wlbvQ_lisMCAEKcjq9hv-6" target="wlbvQ_lisMCAEKcjq9hv-25">
          <mxGeometry width="50" height="50" relative="1" as="geometry">
            <mxPoint x="1440" y="290" as="sourcePoint" />
            <mxPoint x="1509" y="300" as="targetPoint" />
            <Array as="points" />
          </mxGeometry>
        </mxCell>
        <mxCell id="wlbvQ_lisMCAEKcjq9hv-29" value="" style="endArrow=classic;html=1;rounded=0;entryX=0.5;entryY=0;entryDx=0;entryDy=0;fillColor=#0050ef;strokeColor=#001DBC;exitX=0.95;exitY=0.35;exitDx=0;exitDy=0;exitPerimeter=0;" edge="1" parent="1" source="wlbvQ_lisMCAEKcjq9hv-6" target="wlbvQ_lisMCAEKcjq9hv-26">
          <mxGeometry width="50" height="50" relative="1" as="geometry">
            <mxPoint x="1460" y="310" as="sourcePoint" />
            <mxPoint x="1529" y="320" as="targetPoint" />
            <Array as="points" />
          </mxGeometry>
        </mxCell>
        <mxCell id="wlbvQ_lisMCAEKcjq9hv-30" value="&lt;font size=&quot;1&quot;&gt;h4&lt;/font&gt;" style="ellipse;whiteSpace=wrap;html=1;aspect=fixed;fillColor=#60a917;fontColor=light-dark(#FFFFFF,#FFFFFF);strokeColor=#2D7600;" vertex="1" parent="1">
          <mxGeometry x="1320" y="260" width="40" height="40" as="geometry" />
        </mxCell>
        <mxCell id="wlbvQ_lisMCAEKcjq9hv-31" value="&lt;font size=&quot;1&quot;&gt;ul&lt;/font&gt;" style="ellipse;whiteSpace=wrap;html=1;aspect=fixed;fillColor=#60a917;fontColor=light-dark(#FFFFFF,#FFFFFF);strokeColor=#2D7600;" vertex="1" parent="1">
          <mxGeometry x="1370" y="260" width="40" height="40" as="geometry" />
        </mxCell>
        <mxCell id="wlbvQ_lisMCAEKcjq9hv-32" value="&lt;font size=&quot;1&quot;&gt;h4&lt;/font&gt;" style="ellipse;whiteSpace=wrap;html=1;aspect=fixed;fillColor=#60a917;fontColor=light-dark(#FFFFFF,#FFFFFF);strokeColor=#2D7600;" vertex="1" parent="1">
          <mxGeometry x="1430" y="260" width="40" height="40" as="geometry" />
        </mxCell>
        <mxCell id="wlbvQ_lisMCAEKcjq9hv-33" value="&lt;font size=&quot;1&quot;&gt;ul&lt;/font&gt;" style="ellipse;whiteSpace=wrap;html=1;aspect=fixed;fillColor=#60a917;fontColor=light-dark(#FFFFFF,#FFFFFF);strokeColor=#2D7600;" vertex="1" parent="1">
          <mxGeometry x="1480" y="260" width="40" height="40" as="geometry" />
        </mxCell>
        <mxCell id="wlbvQ_lisMCAEKcjq9hv-34" value="" style="endArrow=classic;html=1;rounded=0;entryX=1;entryY=0;entryDx=0;entryDy=0;fillColor=#0050ef;strokeColor=#001DBC;exitX=0;exitY=1;exitDx=0;exitDy=0;" edge="1" parent="1" source="wlbvQ_lisMCAEKcjq9hv-25" target="wlbvQ_lisMCAEKcjq9hv-30">
          <mxGeometry width="50" height="50" relative="1" as="geometry">
            <mxPoint x="1300" y="190" as="sourcePoint" />
            <mxPoint x="1369" y="200" as="targetPoint" />
            <Array as="points" />
          </mxGeometry>
        </mxCell>
        <mxCell id="wlbvQ_lisMCAEKcjq9hv-35" value="" style="endArrow=classic;html=1;rounded=0;fillColor=#0050ef;strokeColor=#001DBC;exitX=0;exitY=1;exitDx=0;exitDy=0;" edge="1" parent="1" source="wlbvQ_lisMCAEKcjq9hv-25" target="wlbvQ_lisMCAEKcjq9hv-31">
          <mxGeometry width="50" height="50" relative="1" as="geometry">
            <mxPoint x="1450" y="240" as="sourcePoint" />
            <mxPoint x="1429" y="380" as="targetPoint" />
            <Array as="points" />
          </mxGeometry>
        </mxCell>
        <mxCell id="wlbvQ_lisMCAEKcjq9hv-36" value="" style="endArrow=classic;html=1;rounded=0;entryX=1;entryY=0;entryDx=0;entryDy=0;fillColor=#0050ef;strokeColor=#001DBC;exitX=0;exitY=1;exitDx=0;exitDy=0;" edge="1" parent="1" source="wlbvQ_lisMCAEKcjq9hv-26" target="wlbvQ_lisMCAEKcjq9hv-32">
          <mxGeometry width="50" height="50" relative="1" as="geometry">
            <mxPoint x="1420" y="320" as="sourcePoint" />
            <mxPoint x="1489" y="330" as="targetPoint" />
            <Array as="points" />
          </mxGeometry>
        </mxCell>
        <mxCell id="wlbvQ_lisMCAEKcjq9hv-37" value="" style="endArrow=classic;html=1;rounded=0;entryX=0.5;entryY=0;entryDx=0;entryDy=0;fillColor=#0050ef;strokeColor=#001DBC;exitX=0.5;exitY=1;exitDx=0;exitDy=0;" edge="1" parent="1" source="wlbvQ_lisMCAEKcjq9hv-26" target="wlbvQ_lisMCAEKcjq9hv-33">
          <mxGeometry width="50" height="50" relative="1" as="geometry">
            <mxPoint x="1520" y="250" as="sourcePoint" />
            <mxPoint x="1489" y="380" as="targetPoint" />
            <Array as="points" />
          </mxGeometry>
        </mxCell>
        <mxCell id="wlbvQ_lisMCAEKcjq9hv-38" value="&lt;font size=&quot;1&quot;&gt;section&lt;/font&gt;&lt;div&gt;&lt;font size=&quot;1&quot;&gt;&lt;i&gt;ayuda&lt;/i&gt;&lt;/font&gt;&lt;/div&gt;" style="ellipse;whiteSpace=wrap;html=1;aspect=fixed;fillColor=#60a917;fontColor=light-dark(#FFFFFF,#FFFFFF);strokeColor=#2D7600;" vertex="1" parent="1">
          <mxGeometry x="1000" y="280" width="40" height="40" as="geometry" />
        </mxCell>
        <mxCell id="wlbvQ_lisMCAEKcjq9hv-39" value="" style="endArrow=classic;html=1;rounded=0;entryX=0;entryY=0;entryDx=0;entryDy=0;fillColor=#0050ef;strokeColor=#001DBC;exitX=0.95;exitY=0.675;exitDx=0;exitDy=0;exitPerimeter=0;" edge="1" parent="1" source="KHE4-WIelxEUgAE3A5Uk-20" target="wlbvQ_lisMCAEKcjq9hv-38">
          <mxGeometry width="50" height="50" relative="1" as="geometry">
            <mxPoint x="950" y="130" as="sourcePoint" />
            <mxPoint x="1240" y="170" as="targetPoint" />
            <Array as="points">
              <mxPoint x="920" y="150" />
            </Array>
          </mxGeometry>
        </mxCell>
        <mxCell id="wlbvQ_lisMCAEKcjq9hv-40" value="&lt;font size=&quot;1&quot;&gt;h2&lt;/font&gt;" style="ellipse;whiteSpace=wrap;html=1;aspect=fixed;fillColor=#60a917;fontColor=light-dark(#FFFFFF,#FFFFFF);strokeColor=#2D7600;" vertex="1" parent="1">
          <mxGeometry x="880" y="320" width="40" height="40" as="geometry" />
        </mxCell>
        <mxCell id="wlbvQ_lisMCAEKcjq9hv-41" value="&lt;font size=&quot;1&quot;&gt;&lt;i&gt;details&lt;/i&gt;&lt;/font&gt;" style="ellipse;whiteSpace=wrap;html=1;aspect=fixed;fillColor=#60a917;fontColor=light-dark(#FFFFFF,#FFFFFF);strokeColor=#2D7600;" vertex="1" parent="1">
          <mxGeometry x="960" y="320" width="40" height="40" as="geometry" />
        </mxCell>
        <mxCell id="wlbvQ_lisMCAEKcjq9hv-42" value="&lt;font size=&quot;1&quot;&gt;aside&lt;/font&gt;&lt;div&gt;&lt;font size=&quot;1&quot;&gt;&lt;i&gt;deep&lt;/i&gt;&lt;/font&gt;&lt;span style=&quot;color: rgba(0, 0, 0, 0); font-family: monospace; font-size: 0px; text-align: start; text-wrap-mode: nowrap; background-color: transparent;&quot;&gt;%3CmxGraphModel%3E%3Croot%3E%3CmxCell%20id%3D%220%22%2F%3E%3CmxCell%20id%3D%221%22%20parent%3D%220%22%2F%3E%3CmxCell%20id%3D%222%22%20value%3D%22%26lt%3Bfont%20size%3D%26quot%3B1%26quot%3B%26gt%3Bsection%26lt%3B%2Ffont%26gt%3B%26lt%3Bdiv%26gt%3B%26lt%3Bfont%20size%3D%26quot%3B1%26quot%3B%26gt%3B%26lt%3Bi%26gt%3Bequipo%26lt%3B%2Fi%26gt%3B%26lt%3B%2Ffont%26gt%3B%26lt%3B%2Fdiv%26gt%3B%22%20style%3D%22ellipse%3BwhiteSpace%3Dwrap%3Bhtml%3D1%3Baspect%3Dfixed%3BfillColor%3D%2360a917%3BfontColor%3Dlight-dark(%23FFFFFF%2C%23FFFFFF)%3BstrokeColor%3D%232D7600%3B%22%20vertex%3D%221%22%20parent%3D%221%22%3E%3CmxGeometry%20x%3D%221000%22%20y%3D%22280%22%20width%3D%2240%22%20height%3D%2240%22%20as%3D%22geometry%22%2F%3E%3C%2FmxCell%3E%3C%2Froot%3E%3C%2FmxGraphModel%3E&lt;/span&gt;&lt;/div&gt;" style="ellipse;whiteSpace=wrap;html=1;aspect=fixed;fillColor=#60a917;fontColor=light-dark(#FFFFFF,#FFFFFF);strokeColor=#2D7600;" vertex="1" parent="1">
          <mxGeometry x="1210" y="320" width="40" height="40" as="geometry" />
        </mxCell>
        <mxCell id="wlbvQ_lisMCAEKcjq9hv-43" value="&lt;font size=&quot;1&quot;&gt;sumary&lt;/font&gt;" style="ellipse;whiteSpace=wrap;html=1;aspect=fixed;fillColor=#60a917;fontColor=light-dark(#FFFFFF,#FFFFFF);strokeColor=#2D7600;" vertex="1" parent="1">
          <mxGeometry x="920" y="360" width="40" height="40" as="geometry" />
        </mxCell>
        <mxCell id="wlbvQ_lisMCAEKcjq9hv-44" value="&lt;font size=&quot;1&quot;&gt;ul&lt;/font&gt;" style="ellipse;whiteSpace=wrap;html=1;aspect=fixed;fillColor=#60a917;fontColor=light-dark(#FFFFFF,#FFFFFF);strokeColor=#2D7600;" vertex="1" parent="1">
          <mxGeometry x="1000" y="360" width="40" height="40" as="geometry" />
        </mxCell>
        <mxCell id="wlbvQ_lisMCAEKcjq9hv-45" value="" style="endArrow=classic;html=1;rounded=0;entryX=0.5;entryY=0;entryDx=0;entryDy=0;fillColor=#0050ef;strokeColor=#001DBC;exitX=0;exitY=0.5;exitDx=0;exitDy=0;" edge="1" parent="1" source="wlbvQ_lisMCAEKcjq9hv-38" target="wlbvQ_lisMCAEKcjq9hv-41">
          <mxGeometry width="50" height="50" relative="1" as="geometry">
            <mxPoint x="1060" y="360" as="sourcePoint" />
            <mxPoint x="1074" y="386" as="targetPoint" />
            <Array as="points" />
          </mxGeometry>
        </mxCell>
        <mxCell id="wlbvQ_lisMCAEKcjq9hv-46" value="" style="endArrow=classic;html=1;rounded=0;entryX=1;entryY=0;entryDx=0;entryDy=0;fillColor=#0050ef;strokeColor=#001DBC;exitX=0;exitY=0.5;exitDx=0;exitDy=0;" edge="1" parent="1" source="wlbvQ_lisMCAEKcjq9hv-38" target="wlbvQ_lisMCAEKcjq9hv-40">
          <mxGeometry width="50" height="50" relative="1" as="geometry">
            <mxPoint x="1080" y="340" as="sourcePoint" />
            <mxPoint x="1094" y="366" as="targetPoint" />
            <Array as="points" />
          </mxGeometry>
        </mxCell>
        <mxCell id="wlbvQ_lisMCAEKcjq9hv-47" value="" style="endArrow=classic;html=1;rounded=0;fillColor=#0050ef;strokeColor=#001DBC;exitX=1;exitY=0.5;exitDx=0;exitDy=0;entryX=0.5;entryY=0;entryDx=0;entryDy=0;" edge="1" parent="1" source="wlbvQ_lisMCAEKcjq9hv-41" target="wlbvQ_lisMCAEKcjq9hv-44">
          <mxGeometry width="50" height="50" relative="1" as="geometry">
            <mxPoint x="1090" y="350" as="sourcePoint" />
            <mxPoint x="1060" y="370" as="targetPoint" />
            <Array as="points" />
          </mxGeometry>
        </mxCell>
        <mxCell id="wlbvQ_lisMCAEKcjq9hv-48" value="" style="endArrow=classic;html=1;rounded=0;entryX=0.5;entryY=0;entryDx=0;entryDy=0;fillColor=#0050ef;strokeColor=#001DBC;exitX=0;exitY=0.5;exitDx=0;exitDy=0;" edge="1" parent="1" source="wlbvQ_lisMCAEKcjq9hv-41" target="wlbvQ_lisMCAEKcjq9hv-43">
          <mxGeometry width="50" height="50" relative="1" as="geometry">
            <mxPoint x="1080" y="380" as="sourcePoint" />
            <mxPoint x="1094" y="406" as="targetPoint" />
            <Array as="points" />
          </mxGeometry>
        </mxCell>
        <mxCell id="wlbvQ_lisMCAEKcjq9hv-49" value="&lt;font size=&quot;1&quot;&gt;h3&lt;/font&gt;" style="ellipse;whiteSpace=wrap;html=1;aspect=fixed;fillColor=#60a917;fontColor=light-dark(#FFFFFF,#FFFFFF);strokeColor=#2D7600;" vertex="1" parent="1">
          <mxGeometry x="1170" y="360" width="40" height="40" as="geometry" />
        </mxCell>
        <mxCell id="wlbvQ_lisMCAEKcjq9hv-50" value="&lt;font size=&quot;1&quot;&gt;ul&lt;/font&gt;" style="ellipse;whiteSpace=wrap;html=1;aspect=fixed;fillColor=#60a917;fontColor=light-dark(#FFFFFF,#FFFFFF);strokeColor=#2D7600;" vertex="1" parent="1">
          <mxGeometry x="1250" y="360" width="40" height="40" as="geometry" />
        </mxCell>
        <mxCell id="wlbvQ_lisMCAEKcjq9hv-51" value="" style="endArrow=classic;html=1;rounded=0;fillColor=#0050ef;strokeColor=#001DBC;exitX=1;exitY=0.5;exitDx=0;exitDy=0;entryX=0;entryY=0.5;entryDx=0;entryDy=0;" edge="1" parent="1" source="wlbvQ_lisMCAEKcjq9hv-38" target="wlbvQ_lisMCAEKcjq9hv-42">
          <mxGeometry width="50" height="50" relative="1" as="geometry">
            <mxPoint x="1000" y="340" as="sourcePoint" />
            <mxPoint x="1020" y="360" as="targetPoint" />
            <Array as="points" />
          </mxGeometry>
        </mxCell>
        <mxCell id="wlbvQ_lisMCAEKcjq9hv-52" value="" style="endArrow=classic;html=1;rounded=0;fillColor=#0050ef;strokeColor=#001DBC;exitX=1;exitY=0.5;exitDx=0;exitDy=0;entryX=0.5;entryY=0;entryDx=0;entryDy=0;" edge="1" parent="1" source="wlbvQ_lisMCAEKcjq9hv-42" target="wlbvQ_lisMCAEKcjq9hv-50">
          <mxGeometry width="50" height="50" relative="1" as="geometry">
            <mxPoint x="1230" y="460" as="sourcePoint" />
            <mxPoint x="1250" y="480" as="targetPoint" />
            <Array as="points" />
          </mxGeometry>
        </mxCell>
        <mxCell id="wlbvQ_lisMCAEKcjq9hv-53" value="" style="endArrow=classic;html=1;rounded=0;fillColor=#0050ef;strokeColor=#001DBC;entryX=1;entryY=0;entryDx=0;entryDy=0;exitX=0;exitY=0.5;exitDx=0;exitDy=0;" edge="1" parent="1" source="wlbvQ_lisMCAEKcjq9hv-42" target="wlbvQ_lisMCAEKcjq9hv-49">
          <mxGeometry width="50" height="50" relative="1" as="geometry">
            <mxPoint x="1190" y="470" as="sourcePoint" />
            <mxPoint x="1210" y="490" as="targetPoint" />
            <Array as="points" />
          </mxGeometry>
        </mxCell>
        <mxCell id="wlbvQ_lisMCAEKcjq9hv-54" value="&lt;font size=&quot;1&quot;&gt;li&lt;/font&gt;" style="ellipse;whiteSpace=wrap;html=1;aspect=fixed;fillColor=#60a917;fontColor=light-dark(#FFFFFF,#FFFFFF);strokeColor=#2D7600;" vertex="1" parent="1">
          <mxGeometry x="960" y="400" width="40" height="40" as="geometry" />
        </mxCell>
        <mxCell id="wlbvQ_lisMCAEKcjq9hv-55" value="&lt;span style=&quot;font-size: x-small;&quot;&gt;li&lt;/span&gt;" style="ellipse;whiteSpace=wrap;html=1;aspect=fixed;fillColor=#60a917;fontColor=light-dark(#FFFFFF,#FFFFFF);strokeColor=#2D7600;" vertex="1" parent="1">
          <mxGeometry x="1040" y="400" width="40" height="40" as="geometry" />
        </mxCell>
        <mxCell id="wlbvQ_lisMCAEKcjq9hv-56" value="" style="endArrow=classic;html=1;rounded=0;fillColor=#0050ef;strokeColor=#001DBC;exitX=1;exitY=0.5;exitDx=0;exitDy=0;entryX=0.5;entryY=0;entryDx=0;entryDy=0;" edge="1" parent="1" source="wlbvQ_lisMCAEKcjq9hv-44" target="wlbvQ_lisMCAEKcjq9hv-55">
          <mxGeometry width="50" height="50" relative="1" as="geometry">
            <mxPoint x="1000" y="340" as="sourcePoint" />
            <mxPoint x="1020" y="360" as="targetPoint" />
            <Array as="points" />
          </mxGeometry>
        </mxCell>
        <mxCell id="wlbvQ_lisMCAEKcjq9hv-57" value="" style="endArrow=classic;html=1;rounded=0;fillColor=#0050ef;strokeColor=#001DBC;exitX=0;exitY=0.5;exitDx=0;exitDy=0;" edge="1" parent="1" source="wlbvQ_lisMCAEKcjq9hv-44" target="wlbvQ_lisMCAEKcjq9hv-54">
          <mxGeometry width="50" height="50" relative="1" as="geometry">
            <mxPoint x="1070" y="360" as="sourcePoint" />
            <mxPoint x="1090" y="380" as="targetPoint" />
            <Array as="points" />
          </mxGeometry>
        </mxCell>
        <mxCell id="wlbvQ_lisMCAEKcjq9hv-58" value="&lt;font size=&quot;1&quot;&gt;ul&lt;/font&gt;" style="ellipse;whiteSpace=wrap;html=1;aspect=fixed;fillColor=#60a917;fontColor=light-dark(#FFFFFF,#FFFFFF);strokeColor=#2D7600;" vertex="1" parent="1">
          <mxGeometry x="1000" y="440" width="40" height="40" as="geometry" />
        </mxCell>
        <mxCell id="wlbvQ_lisMCAEKcjq9hv-59" value="&lt;span style=&quot;font-size: x-small;&quot;&gt;ul&lt;/span&gt;" style="ellipse;whiteSpace=wrap;html=1;aspect=fixed;fillColor=#60a917;fontColor=light-dark(#FFFFFF,#FFFFFF);strokeColor=#2D7600;" vertex="1" parent="1">
          <mxGeometry x="920" y="440" width="40" height="40" as="geometry" />
        </mxCell>
        <mxCell id="wlbvQ_lisMCAEKcjq9hv-60" value="&lt;span style=&quot;font-size: x-small;&quot;&gt;li&lt;/span&gt;&lt;div&gt;&lt;font size=&quot;1&quot;&gt;a&lt;/font&gt;&lt;/div&gt;" style="ellipse;whiteSpace=wrap;html=1;aspect=fixed;fillColor=#60a917;fontColor=light-dark(#FFFFFF,#FFFFFF);strokeColor=#2D7600;" vertex="1" parent="1">
          <mxGeometry x="960" y="480" width="40" height="40" as="geometry" />
        </mxCell>
        <mxCell id="wlbvQ_lisMCAEKcjq9hv-61" value="&lt;span style=&quot;font-size: x-small;&quot;&gt;li&lt;/span&gt;&lt;div&gt;&lt;span style=&quot;font-size: x-small;&quot;&gt;strong&lt;/span&gt;&lt;/div&gt;" style="ellipse;whiteSpace=wrap;html=1;aspect=fixed;fillColor=#60a917;fontColor=light-dark(#FFFFFF,#FFFFFF);strokeColor=#2D7600;" vertex="1" parent="1">
          <mxGeometry x="880" y="480" width="40" height="40" as="geometry" />
        </mxCell>
        <mxCell id="wlbvQ_lisMCAEKcjq9hv-62" value="" style="endArrow=classic;html=1;rounded=0;fillColor=#0050ef;strokeColor=#001DBC;exitX=0;exitY=0.5;exitDx=0;exitDy=0;entryX=0.614;entryY=-0.054;entryDx=0;entryDy=0;entryPerimeter=0;" edge="1" parent="1" source="wlbvQ_lisMCAEKcjq9hv-54" target="wlbvQ_lisMCAEKcjq9hv-59">
          <mxGeometry width="50" height="50" relative="1" as="geometry">
            <mxPoint x="1001" y="380" as="sourcePoint" />
            <mxPoint x="990" y="402" as="targetPoint" />
            <Array as="points" />
          </mxGeometry>
        </mxCell>
        <mxCell id="wlbvQ_lisMCAEKcjq9hv-63" value="" style="endArrow=classic;html=1;rounded=0;fillColor=#0050ef;strokeColor=#001DBC;exitX=0;exitY=0.5;exitDx=0;exitDy=0;entryX=0.5;entryY=0;entryDx=0;entryDy=0;" edge="1" parent="1" source="wlbvQ_lisMCAEKcjq9hv-55" target="wlbvQ_lisMCAEKcjq9hv-58">
          <mxGeometry width="50" height="50" relative="1" as="geometry">
            <mxPoint x="1021" y="420" as="sourcePoint" />
            <mxPoint x="1010" y="442" as="targetPoint" />
            <Array as="points" />
          </mxGeometry>
        </mxCell>
        <mxCell id="wlbvQ_lisMCAEKcjq9hv-64" value="" style="endArrow=classic;html=1;rounded=0;fillColor=#0050ef;strokeColor=#001DBC;exitX=0;exitY=0.5;exitDx=0;exitDy=0;entryX=0.5;entryY=0;entryDx=0;entryDy=0;" edge="1" parent="1" source="wlbvQ_lisMCAEKcjq9hv-58" target="wlbvQ_lisMCAEKcjq9hv-60">
          <mxGeometry width="50" height="50" relative="1" as="geometry">
            <mxPoint x="1061" y="470" as="sourcePoint" />
            <mxPoint x="1050" y="492" as="targetPoint" />
            <Array as="points" />
          </mxGeometry>
        </mxCell>
        <mxCell id="wlbvQ_lisMCAEKcjq9hv-65" value="" style="endArrow=classic;html=1;rounded=0;fillColor=#0050ef;strokeColor=#001DBC;exitX=0;exitY=0.5;exitDx=0;exitDy=0;entryX=0.5;entryY=0;entryDx=0;entryDy=0;" edge="1" parent="1" source="wlbvQ_lisMCAEKcjq9hv-59" target="wlbvQ_lisMCAEKcjq9hv-61">
          <mxGeometry width="50" height="50" relative="1" as="geometry">
            <mxPoint x="1071" y="500" as="sourcePoint" />
            <mxPoint x="1060" y="522" as="targetPoint" />
            <Array as="points" />
          </mxGeometry>
        </mxCell>
        <mxCell id="wlbvQ_lisMCAEKcjq9hv-66" value="&lt;span style=&quot;font-size: x-small;&quot;&gt;li&lt;/span&gt;&lt;div&gt;&lt;span style=&quot;font-size: x-small;&quot;&gt;a&lt;/span&gt;&lt;/div&gt;" style="ellipse;whiteSpace=wrap;html=1;aspect=fixed;fillColor=#60a917;fontColor=light-dark(#FFFFFF,#FFFFFF);strokeColor=#2D7600;" vertex="1" parent="1">
          <mxGeometry x="1201" y="400" width="40" height="40" as="geometry" />
        </mxCell>
        <mxCell id="wlbvQ_lisMCAEKcjq9hv-67" value="&lt;span style=&quot;font-size: x-small;&quot;&gt;li&lt;/span&gt;&lt;div&gt;&lt;span style=&quot;font-size: x-small;&quot;&gt;a&lt;/span&gt;&lt;/div&gt;" style="ellipse;whiteSpace=wrap;html=1;aspect=fixed;fillColor=#60a917;fontColor=light-dark(#FFFFFF,#FFFFFF);strokeColor=#2D7600;" vertex="1" parent="1">
          <mxGeometry x="1280" y="400" width="40" height="40" as="geometry" />
        </mxCell>
        <mxCell id="wlbvQ_lisMCAEKcjq9hv-68" value="" style="endArrow=classic;html=1;rounded=0;fillColor=#0050ef;strokeColor=#001DBC;entryX=0.5;entryY=0;entryDx=0;entryDy=0;exitX=0;exitY=0.5;exitDx=0;exitDy=0;" edge="1" parent="1" source="wlbvQ_lisMCAEKcjq9hv-50" target="wlbvQ_lisMCAEKcjq9hv-66">
          <mxGeometry width="50" height="50" relative="1" as="geometry">
            <mxPoint x="1226" y="370" as="sourcePoint" />
            <mxPoint x="1220" y="396" as="targetPoint" />
            <Array as="points" />
          </mxGeometry>
        </mxCell>
        <mxCell id="wlbvQ_lisMCAEKcjq9hv-69" value="" style="endArrow=classic;html=1;rounded=0;fillColor=#0050ef;strokeColor=#001DBC;entryX=0.5;entryY=0;entryDx=0;entryDy=0;exitX=1;exitY=0.5;exitDx=0;exitDy=0;" edge="1" parent="1" source="wlbvQ_lisMCAEKcjq9hv-50" target="wlbvQ_lisMCAEKcjq9hv-67">
          <mxGeometry width="50" height="50" relative="1" as="geometry">
            <mxPoint x="1266" y="440" as="sourcePoint" />
            <mxPoint x="1260" y="466" as="targetPoint" />
            <Array as="points" />
          </mxGeometry>
        </mxCell>
      </root>
    </mxGraphModel>
  </diagram>
</mxfile>
